<svg xmlns="http://www.w3.org/2000/svg" preserveAspectRatio="none" viewBox="0 0 319.886 168.622" enable-background="new 0 0 319.886 168.622"><rect x="6.601" y="5.743" fill="#fff" fill-opacity=".6" width="305.809" height="156.223"/><g fill="#678EA9"><polygon points="312.438,3.785 312.416,4.236 312.479,4.379"/><path d="M312.208 5.926l.027.776c.185-.446.131.153.264-1.058-.029-.425-.093-1.359-.166-1.236.008.304.079.752.056 1.206-.053-.195-.047-.681-.116-.908-.058.73.045.459.02 1.264l-.085-.044zM312.393 6.842l-.09-.132c.032.074.071.45.09.132zM312.412 7.314c-.008.49-.068-.008-.079.042l.119.555-.04-.597zM312.403 9.348l.012.227-.012-.227zM312.418 10.347c.041-.2.017-.453-.003-.772l-.008.031c-.034.28-.12.017-.098-.436-.019-.472.065-.429.01-.839l-.068.562c.011.743.133 1.164.167 1.454zM312.403 9.348l-.005-.267.005.267z"/><polygon points="312.414,8.326 312.396,8.073 312.36,8.134"/><path d="M312.425 12.015c-.116-.118.012-1.193-.078-1.323.005.657-.079 1.184-.144 1.04l.036.727c.044.244.131-.064.186-.444zM312.132 13.44l.02.166-.02-.166zM312.33 17.122l-.116-1.701c.037.158.073.096.087.482.016-.752-.059-.851-.047-1.47.108-.188.008 1.095.104.737-.003-.437-.008-1.094-.1-1.444l.074-.695-.119.235c-.034.283.093.569.011.743-.051.088-.061-.194-.072-.394.023.449-.093 1.229-.077 2.141.013.959.198.732.255 1.366z"/><polygon points="312.2,17.186 312.154,17.299 312.217,17.221"/><path d="M312.354 19.042l-.074-.885.057-.212-.096-.166c-.107.409.034 1.083.053 1.559-.048 1.255-.058-.058-.158.431l.035-.853c-.12.769-.01 1.734.021 2.228.011-.144.044-.181.034-.453l.035.512c.085-.529.107-.982.093-2.161zM312.354 17.46c.008.33 0 .452-.015.481.028-.087.05-.198.015-.481zM312.194 21.41l-.003-.266.003.266zM312.321 20.907l-.012.621.051-.245c-.006-.086-.013-.39-.039-.376zM312.157 44.635c.044-.056.065-.283.057-.762.058.057.047.678.08.969.037-.634.068.01.124-.151.006-.706-.069-1.02-.055-1.775.017.036.043.022.062-.076-.036-.909-.091-2.45-.041-3.337.021-.856-.006-1.491-.031-2.432.03-3.09-.029-6.315.024-9.64l-.112-.471c.056-.161-.001-.792.072-.699-.014.182-.002.355 0 .574.099-.712-.009-1.887.027-2.741-.021.097-.119.237-.137-.02.126.069-.002-1.009.143-1.257l-.09-.922c-.074-.095-.036.853-.092 1.013-.061-.279.025-.805-.053-.766-.037 1.426.117 4.075.16 6.252l-.07-.229c.05 1.117.053 2.92-.061 3.813.065-.21-.036 1.645.114 1.479-.034.282-.028.367-.041.769l.048.108c-.002.573-.075.479-.07 1.136.064-.428.084.046.138.237l-.195 2.295c.021-.053.045-.112.073-.341-.023.453.039.376.061.498.004.438-.08.392-.122.37-.026.803.134 1.162.08 1.762l.066-.209c.017.826-.057 1.523-.034 2.435-.092.442-.079-.75-.118-1.129-.02.186-.024.579-.055.706l.154 1.53c-.105-.463-.099.701-.106 1.011zM312.11 42.095l-.036-.265.008.305.028-.04zM312.157 44.635l-.011.019.011-.019zM312.391 39.385l-.006.118-.002.151.008-.269zM312.088 38.703l.071-.699c-.03.077-.054.141-.071.699zM312.163 33.124l-.054-.191c-.002.352.02.472.054.191z"/><polygon points="312.094,43.096 312.114,43.791 312.132,44.045"/><path d="M312.439 57.17c.08-.613.031-1.513.047-2.267-.041-1.386-.174-.175-.184-1.491l.164.226c-.01-1.314.024-3.178-.119-4.294.02-.097.044-.33.067.012-.006-.877-.232-.454-.179-1.624.102 1.091.097-.358.198-.059l.012.17c-.011-.742-.064-1.724-.058-2.214-.043-.021-.106.408-.111-.25-.009.267-.057.16-.099.138.047.679.018 1.046.073 1.459l-.072.125.051.544c-.013.402-.055-.413-.066.211.032.071.067.579.06 1.068l-.019-.141c.021.373-.005.903.086.721l-.091.443.062-.078c-.023 1.025-.172 1.408-.095 2.731.019-.315.052-.025.063.145.043-.551-.047-.681-.055-1.203.062-.077.136.81.173.174-.073.698.01 1.314-.146 1.613-.01.841.066 1.155.03 2.008l-.022-.023c.102.158-.047.693.059 1.324l.022-.45c.042.021.043.241.051.545l-.036.063c.074.095.086 1.056.107 1.176.013-.402-.048-.898-.067-1.372.046.241.107.168.094.57zM312.169 48.513l.036.271-.036-.271zM312.311 60.973l-.097.356c.051.545.105-.624.183-.093-.045.331.032.864.033 1.084-.043-.243-.142-.104-.162-.006.027.207-.021.67-.023 1.023l.104-.053c.059.058.101.872.056 1.204-.042-.024-.033-.293-.034-.512-.08-.179-.043.55-.116.675.11.825.104 3.466.281 2.715.034-.282-.009-.522-.017-.828-.036.856-.094.006-.126-.067.028-.366-.028-.995.036-.853l.066.583c.033-1.864.021-4.409-.005-6.551l-.004.927c-.048-.107-.052-.545-.074-.886l-.117.455c.009-.267-.009-.523.033-.501-.05-.325-.079-.178-.12.017-.021-.691.025-.805-.051-1.337l-.005 2.289.159.359z"/><polygon points="312.246,58.454 312.305,58.732 312.275,58.309"/><path d="M312.504 58.896l-.062-.144c-.018.536.018.474.062.144zM312.248 65.359l.021.691.022-.45c-.025.013-.037-.157-.043-.241zM312.554 70.215c-.012-.961-.066-1.373-.007-2.459-.077-.531-.145.25-.214.021-.017.538.113.472.138 1.029-.065.208.015.817 0 1.351.027-.066.058-.066.083.058zM312.301 73.523c-.001.438.051.881.019 1.229-.042-.048-.057-.311-.046-.576-.094.168.015.485-.048.961.01-.042.026-.216.047-.083-.022 1.183.077.665.023 2.197.025.223.025.441.088.404-.079.871-.079.431-.148 1.478.037-.04.121-.382.199-.376-.11 1.48.016 1.511-.067 2.455-.004-.105-.024-.233-.014-.486-.109.122.021.792-.002 1.314l-.093-.049c.015.484.076 1.323.008 1.932l-.047-.138c.071 1.237.038 2.682.073 3.74l-.058.565c.071 1.455.032-1.446.172-.38-.172.159.057.75-.013 1.578-.068.39-.035-.836-.113-.405.088.185.025.441.051.884-.084-.096-.012.92-.105.65l.154 1.55c-.047.248-.039.697-.027 1.028.001-.836.124.23.163-.709-.04-1.364-.068-3.65-.024-5.359-.115-.186.001-1.097-.093-1.369l.104-.209c-.024-1.1-.062.257-.104-.009-.015-.484.054-.872.096-.827.006-.789-.031-.09-.093-.492l.125-.514c-.038-2.461-.123-5.718-.052-8.52l-.078.21c.043-1.267-.175-2.123-.007-3.246l-.067-.386c.038.211.118-.218.172.114l-.021-1.069-.037.634c-.067-.445-.026-.936.032-1.083-.078-.946-.136.562-.201.773.145 1.333-.143 1.342-.082 2.623.044.792.072-.083.114-.034zM312.516 71.873l-.021-.194.021.194zM312.354 92.995l.005.373-.005-.373z"/><polygon points="312.471,70.157 312.469,70.16 312.471,70.17"/><polygon points="312.277,69.522 312.275,69.874 312.311,69.813"/><path d="M312.255 96.738l.042.005-.042-.005zM312.229 106.877l.003-.218-.003.218zM312.315 131.204c.025.661.051 1.542.117 2.029l-.041-.048c.021.355.086 1.5.16.762l-.036-.18c-.062-.839.068-.608.096-1.265-.02-.792-.176-1.244-.139-1.942-.005-.309.037-.26.068-.171.012-.7-.108-.976-.124-1.459.313-.19-.085-2.158.114-3.195-.025-.659.002-1.535-.061-2.375.079.446.007-.79.096-.606-.183-.235.081-2.406-.148-2.558l.039-1.359c.025.002.025.224.03.311.047-.521-.098-.799.007-1.229.017-1.051-.062-.18-.124-.799.027-1.096.059-.788.153-1.392-.109-.098-.057-.752-.113-1.284-.006.133-.027.876-.068.389.018-1.271-.072-1.017-.102-2.204.121-.603.004 1.186.099.142.057.752.051 1.322.139 1.726.007-1.012-.013-2.241-.063-3.345.017-.612.057.314.068-.168.053-1.093-.123-1.68-.07-2.554l.062.183c-.083-.534.019-1.932-.027-2.943-.031.128-.053.214-.073.079.156.017-.081-1.411.029-2.41-.1.079-.155-.892-.165-1.507.026-.218.068-.171.095-.168-.06 1.005.107.976.153 1.771-.051-.664.002-1.759-.07-2.334l.078.226c.012-.92-.176-.805-.102-1.766l.057.095c-.008-1.933.094-4.206-.034-5.755-.047-.136-.157.646-.194.687.041.925.124 1.459.165 2.163l-.089-.006c.061.16.098 1.008.146.539.046.574-.079.433-.028 1.094l-.181-.454.046.574-.068.172c.113 1.062-.044 1.487.007 2.589l.017-.613c.053.005.047.357.062.62-.074.302-.063.479-.096 1.045.041.487.135.759.134 1.417-.099-.142-.054 1.094-.137 1.217.099.141.035 1.277.092 1.368.021.354.01.837-.043.832l-.018-.266-.003.352-.021-.062c-.003.313.069.316.021.719-.026-.003-.025-.22-.036-.397-.017.834.149 1.464.06 2.155.047.136.051 1.103.155.893-.037.261-.12.165-.105.869.088.402-.032.786.024 1.318l-.114-.626c-.036.48.082 1.193.066 2.028l-.068.168c.031.312.104.667.029.968l.063-.038c-.032.569-.013 1.36-.081 1.97l.119.711c-.126.956-.013 2.237.095 2.994-.005.351-.026.876-.054.873l-.043-.381c-.004.516-.072 1.145.027 1.433.03.53-.068.389-.085.782.14 1.069-.103 3.152.11 3.479.001-.439.043-1.271.034-2.104.025.222.067.05.072.357.009.837-.069 1.267-.034 2.104l-.135-.1c-.138 1.433.184 2.737-.011 3.86zM312.318 120.495l-.068.606.059-.064c-.01-.188-.01-.379.009-.542zM312.309 121.037l.027.354-.013-.369-.014.015zM312.339 133.618c-.006.134-.017.396-.001.661.016-.174.021-.526.001-.661z"/><polygon points="312.379,134.325 312.4,134.021 312.385,133.976"/><path d="M312.497 152.069l.083.976c-.042.171.008 1.273-.063.916.098.58.003 1.842.144 1.374-.049-2.858.035-6.802-.092-10.106l.057.532c-.111-1.72.123-2.356-.099-3.738l.114.184c.032-.786-.165-1.506-.045-2.329l-.046.084.021-.527-.021.089c-.046-.575-.04-.926-.009-1.493.037-.041.016.265.025.44.037-.261-.04-.706-.039-1.146.031-.348.052.005.067.052-.051-1.322.069-1.924-.101-2.862-.031-.091-.059.344-.073-.138-.054.872.014 1.581.06 2.376l.001-.221c.165.63-.038.479.034 1.495-.067-.268-.067-.709-.104-.887-.126 1.174.097 1.677-.066 2.452l-.004-.088c-.016.175.015.484.03.748l.048-.521c.015.266.088.402.119.493-.074.301.035.397-.002.878-.067.17-.062-.4-.098-.579l.046.576c.005.524-.073.518-.11.778l.109.1c-.084.563-.061 2.979.005 4.127-.01-.398-.072-.14-.062-.622-.016.175.02.79.072.796.046.795.014 1.802-.035 2.544l.053-.214c.088.622-.064 1.574-.014 2.675l.001-.023c.012.354.139.659.112 1.309-.06-.185-.055-.536-.118-.5zM312.618 155.945l-.073-.358c-.016.396.077.886.124.802-.015-.264.017-.614-.024-.661-.011.045-.038.042-.027.217zM312.629 163.32l.064.168c-.009-1.562-.037-3.488.02-4.11.021-.527-.088-.622-.113-1.283l.073-.3c-.047-.356.033-1.447-.087-1.062-.011.043.057.312.035.618l-.041-.049.014.704-.052-.224c-.074.959.156.673.107 1.853l-.104-.009c-.006.791.03 1.188-.033 1.884 0 0 .053.006.031-.126.006-.134.047-.305.078-.213l-.104.647c.071 1.017.132 2.952.048 3.516.062-.478.13.233.124.801-.037.261-.062-.181-.094-.271-.011.264-.037.479-.021.746.058-.346.136-.12.171.498.064-1.356-.128-2.428-.116-3.788zM312.718 163.725l-.024-.236.003.543.021-.307z"/></g><g fill="#678EA9"><polygon points="6.571,168.622 6.594,168.159 6.53,168.013"/><path d="M6.802 166.426l-.027-.797c-.185.457-.131-.157-.264 1.085.029.436.093 1.395.166 1.269-.008-.312-.079-.771-.056-1.238.053.2.047.699.116.933.057-.75-.045-.472-.02-1.297l.085.045zM6.617 165.485l.09.135c-.032-.075-.071-.461-.09-.135zM6.598 165c.007-.503.068.009.079-.044l-.119-.568.04.612zM6.606 162.913l-.012-.232.012.232zM6.592 161.889c-.041.205-.017.464.003.792l.008-.032c.035-.287.12-.017.098.447.019.484-.065.44-.01.861l.068-.577c-.01-.762-.133-1.194-.167-1.491zM6.606 162.913l.005.274-.005-.274z"/><polygon points="6.596,163.962 6.614,164.222 6.65,164.159"/><path d="M6.585 160.177c.116.12-.012 1.224.078 1.357-.005-.674.08-1.215.144-1.067l-.036-.746c-.044-.251-.131.065-.186.456zM6.878 158.714l-.02-.17.02.17zM6.679 154.936l.117 1.746c-.037-.162-.074-.098-.087-.495-.016.772.059.873.047 1.509-.108.192-.008-1.123-.104-.756.003.448.008 1.122.1 1.482l-.074.713.119-.241c.034-.291-.093-.584-.011-.763.051-.09.061.199.072.404-.023-.461.093-1.26.077-2.196-.013-.986-.199-.753-.256-1.403z"/><polygon points="6.81,154.87 6.855,154.753 6.793,154.834"/><path d="M6.655 152.965l.074.909-.057.218.096.169c.107-.419-.034-1.111-.053-1.6.048-1.288.058.06.158-.442l-.035.875c.12-.789.01-1.779-.021-2.286-.011.147-.043.186-.034.464l-.035-.524c-.084.542-.106 1.007-.093 2.217zM6.656 154.589c-.008-.339 0-.464.015-.494-.028.089-.05.203-.015.494zM6.815 150.535l.003.272-.003-.272zM6.688 151.051l.012-.637-.051.251c.006.089.014.4.039.386zM6.853 126.7c-.044.058-.065.29-.057.782-.058-.059-.047-.696-.08-.995-.037.651-.068-.01-.124.155-.006.725.069 1.047.054 1.822-.016-.037-.042-.023-.062.077.036.934.091 2.515.041 3.425-.022.879.005 1.531.031 2.496-.03 3.172.03 6.48-.024 9.894l.113.482c-.057.166 0 .813-.073.717.014-.187.002-.364.001-.589-.099.731.008 1.938-.027 2.813.02-.1.119-.243.136.021-.125-.071.002 1.034-.142 1.29l.09.946c.074.097.036-.876.092-1.04.06.286-.025.826.053.785.037-1.464-.118-4.181-.16-6.416l.07.235c-.05-1.146-.053-2.997.061-3.914-.068.217.034-1.686-.117-1.516.034-.289.029-.377.042-.789l-.048-.11c.001-.588.075-.492.07-1.166-.064.439-.084-.047-.138-.243l.195-2.355c-.021.055-.045.115-.073.351.023-.465-.039-.386-.061-.511-.003-.449.08-.401.122-.38.026-.824-.134-1.192-.08-1.809l-.066.215c-.017-.848.057-1.563.034-2.499.092-.454.079.771.118 1.158.02-.19.024-.594.055-.725l-.154-1.569c.107.475.101-.718.108-1.038zM6.899 129.307l.036.272-.007-.312-.029.04zM6.853 126.7l.011-.02-.011.02zM6.619 132.088l.006-.121.002-.154-.008.275zM6.922 132.789l-.071.717c.029-.079.053-.145.071-.717zM6.847 138.514l.054.196c.002-.361-.02-.484-.054-.196z"/><polygon points="6.917,128.279 6.896,127.567 6.878,127.307"/><path d="M6.57 113.837c-.08.629-.031 1.553-.047 2.327.041 1.422.174.18.183 1.529l-.164-.232c.01 1.35-.024 3.262.119 4.407-.02.1-.044.338-.067-.012.006.899.232.466.179 1.666-.102-1.119-.097.367-.198.061l-.012-.175c.011.761.064 1.769.058 2.272.042.021.106-.419.112.257.008-.274.056-.164.098-.143-.047-.696-.018-1.073-.073-1.497l.072-.129-.051-.558c.013-.413.055.424.066-.217-.032-.073-.067-.595-.06-1.096l.019.144c-.021-.382.005-.927-.086-.74l.091-.454-.062.079c.024-1.052.172-1.444.095-2.803-.019.324-.052.025-.063-.148-.043.565.046.699.055 1.234-.062.079-.136-.83-.173-.179.073-.716-.01-1.35.145-1.655.01-.863-.066-1.186-.03-2.062l.023.024c-.102-.162.046-.711-.059-1.358l-.023.462c-.042-.022-.043-.248-.051-.56l.036-.064c-.074-.098-.086-1.083-.107-1.207-.013.413.048.922.067 1.408-.042-.243-.104-.168-.092-.581zM6.841 122.721l-.036-.278.036.278zM6.7 109.935l.096-.366c-.051-.56-.105.641-.182.096.044-.34-.033-.887-.034-1.112.043.249.142.106.162.006-.028-.212.021-.688.023-1.05l-.104.054c-.058-.06-.101-.895-.056-1.235.042.025.033.301.035.525.08.184.042-.564.116-.692-.111-.847-.104-3.558-.281-2.787-.034.29.009.536.017.85.036-.879.094-.006.126.069-.028.375.028 1.021-.036.875l-.066-.598c-.033 1.913-.021 4.525.005 6.724l.003-.952c.048.111.051.561.074.909l.117-.467c-.009.274.009.537-.033.516.05.333.08.182.12-.018.021.709-.025.825.051 1.371l.004-2.349-.157-.369z"/><polygon points="6.764,112.52 6.705,112.233 6.734,112.668"/><path d="M6.506 112.065l.062.148c.018-.55-.018-.485-.062-.148zM6.762 105.433l-.021-.709-.022.462c.026-.013.037.161.043.247zM6.456 100.449c.012.986.066 1.409.007 2.523.077.546.144-.257.214-.021.017-.553-.113-.484-.138-1.057.066-.214-.014-.839 0-1.386-.027.069-.058.069-.083-.059zM6.709 97.055c.001-.449-.051-.904-.019-1.261.042.05.057.318.046.591.094-.173-.015-.498.048-.986-.01.042-.026.222-.047.085.022-1.215-.077-.683-.023-2.255-.026-.229-.025-.453-.088-.415.079-.894.079-.442.148-1.517-.037.042-.121.393-.199.387.11-1.52-.016-1.552.067-2.52.004.108.024.239.014.499.109-.125-.02-.812.001-1.35l.093.051c-.015-.496-.076-1.357-.008-1.981l.047.142c-.071-1.27-.038-2.753-.073-3.838l.058-.581c-.071-1.493-.033 1.484-.172.39.172-.163-.057-.77.012-1.619.069-.4.036.857.114.415-.088-.189-.025-.452-.051-.906.083.098.012-.944.105-.667l-.154-1.591c.047-.255.039-.716.027-1.055 0 .857-.123-.237-.162.727.04 1.399.068 3.746.024 5.499.115.191-.001 1.126.093 1.405l-.104.215c.024 1.128.062-.264.104.009.015.496-.054.895-.096.849-.006.81.031.092.093.505l-.125.528c.039 2.525.123 5.868.052 8.743l.078-.215c-.043 1.3.175 2.178.007 3.331l.067.396c-.039-.217-.118.225-.172-.117l.021 1.098.038-.65c.067.456.025.96-.033 1.111.079.971.136-.577.202-.793-.145-1.368.142-1.378.082-2.691-.046-.816-.073.082-.115.032zM6.494 98.748l.021.199-.021-.199zM6.656 77.072l-.005-.383.005.383z"/><polygon points="6.539,100.51 6.541,100.506 6.539,100.496"/><polygon points="6.732,101.161 6.734,100.8 6.699,100.862"/><path d="M6.755 73.23l-.042-.004.042.004zM6.78 62.826l-.002.224.002-.224zM6.694 37.86c-.025-.678-.051-1.582-.117-2.082l.041.049c-.02-.365-.086-1.54-.16-.782l.036.184c.062.861-.068.625-.095 1.298.019.812.175 1.276.138 1.993.005.316-.037.267-.068.175-.011.719.108 1.001.124 1.498-.313.196.085 2.214-.114 3.279.026.676-.002 1.575.06 2.438-.079-.458-.006.811-.095.622.183.242-.081 2.47.148 2.625l-.039 1.395c-.026-.001-.026-.229-.031-.318-.047.535.098.82-.007 1.261-.017 1.078.062.184.124.82-.027 1.125-.059.809-.153 1.429.109.1.056.771.113 1.317.005-.136.027-.899.068-.399-.017 1.305.073 1.044.103 2.262-.121.618-.004-1.217-.099-.145-.057-.771-.051-1.357-.139-1.771-.007 1.039.013 2.301.063 3.433-.017.628-.057-.322-.068.172-.053 1.121.123 1.724.07 2.621l-.062-.188c.083.549-.019 1.982.027 3.021.031-.131.053-.219.073-.081-.156-.017.081 1.448-.029 2.474.099-.081.155.915.165 1.546-.027.223-.069.175-.095.172.06-1.032-.107-1.001-.153-1.817.051.681-.002 1.804.07 2.395l-.078-.231c-.011.944.176.826.102 1.812l-.057-.097c.008 1.983-.094 4.316.034 5.905.047.14.157-.662.194-.704-.041-.949-.124-1.498-.165-2.22l.089.007c-.061-.165-.098-1.035-.146-.554-.045-.589.079-.444.028-1.123l.181.466-.045-.591.068-.176c-.113-1.09.044-1.526-.007-2.657l-.017.629c-.052-.005-.047-.366-.062-.636.073-.309.063-.491.095-1.072-.041-.5-.135-.778-.134-1.454.099.145.054-1.123.137-1.25-.099-.144-.035-1.31-.092-1.404-.02-.362-.01-.859.043-.854l.017.272.003-.361.021.063c.003-.322-.069-.324-.021-.738.026.003.025.226.036.409.017-.856-.149-1.503-.06-2.213-.047-.139-.051-1.131-.156-.916.038-.267.121-.169.106-.892-.088-.413.032-.807-.024-1.352l.114.642c.036-.493-.082-1.224-.066-2.081l.068-.173c-.031-.319-.103-.684-.03-.993l-.059.041c.032-.584.013-1.396.081-2.021l-.119-.729c.126-.981.013-2.296-.095-3.073.005-.359.027-.899.053-.896l.043.391c.004-.529.072-1.175-.027-1.47-.03-.544.068-.398.084-.803-.14-1.097.103-3.235-.11-3.57-.001.451-.043 1.303-.034 2.159-.025-.227-.067-.051-.072-.366-.009-.859.069-1.3.034-2.16l.135.103c.138-1.474-.183-2.811.011-3.965zM6.691 48.851l.069-.623-.059.067c.01.192.01.388-.01.556zM6.701 48.295l-.027-.363.013.378.014-.015zM6.671 35.383c.006-.137.017-.407.001-.679-.016.18-.022.541-.001.679z"/><polygon points="6.63,34.657 6.609,34.971 6.625,35.016"/><path d="M6.513 16.448l-.083-1.001c.042-.175-.009-1.306.063-.94-.098-.595-.002-1.89-.144-1.41.048 2.933-.035 6.98.091 10.371l-.056-.546c.112 1.766-.124 2.419.099 3.837l-.114-.189c-.032.807.165 1.546.044 2.391l.046-.086-.021.541.021-.09c.046.59.04.95.009 1.532-.037.042-.016-.272-.025-.453-.037.268.04.725.04 1.177-.032.356-.052-.005-.068-.053.051 1.357-.07 1.975.101 2.937.031.094.059-.353.073.142.054-.895-.014-1.623-.06-2.438l-.001.226c-.165-.646.038-.492-.034-1.535.067.275.067.728.103.91.126-1.205-.097-1.721.066-2.516l.004.09c.016-.179-.015-.497-.03-.768l-.047.535c-.015-.272-.088-.413-.119-.506.073-.308-.036-.408.001-.901.068-.174.062.411.098.594l-.046-.591c-.005-.539.074-.532.11-.8l-.109-.101c.084-.578.061-3.057-.005-4.235.01.409.072.143.062.638.016-.18-.02-.811-.072-.816-.046-.816-.013-1.85.035-2.611l-.052.22c-.088-.638.065-1.616.014-2.746l-.001.025c-.012-.364-.138-.676-.112-1.343.061.186.056.546.119.509zM6.392 12.471l.073.367c.016-.405-.077-.908-.124-.822.015.27-.017.63.025.679.01-.048.036-.044.026-.224zM6.38 4.902l-.064-.173c.009 1.603.038 3.58-.019 4.218-.021.542.088.639.113 1.318l-.073.308c.047.366-.033 1.486.087 1.09.011-.043-.057-.321-.035-.635l.042.051-.014-.723.052.229c.074-.984-.156-.69-.107-1.901l.104.009c.006-.812-.03-1.22.033-1.934 0 0-.052-.005-.031.13-.007.137-.049.313-.08.219l.105-.665c-.071-1.043-.132-3.029-.048-3.607-.062.489-.13-.24-.124-.822.037-.267.062.186.094.278.011-.27.037-.491.021-.765-.057.355-.135.123-.17-.511-.065 1.391.127 2.491.114 3.886zM6.292 4.487l.024.243-.003-.557-.021.314z"/></g><g fill="#678EA9"><polygon points="2.739,164.583 2.829,164.136 2.573,163.993"/><path d="M3.659 162.458l-.107-.771c-.741.442-.526-.152-1.055 1.051.115.421.372 1.349.662 1.227-.031-.303-.313-.747-.223-1.197.213.193.188.676.465.901.229-.726-.18-.456-.078-1.255l.336.044zM2.923 161.548c.127.07.254.144.358.131-.128-.074-.285-.447-.358-.131zM2.846 161.079c.028-.487.273.008.313-.043l-.477-.551.164.594zM2.878 159.06l-.045-.226c-.076.078-.012.143.045.226zM2.821 158.068c-.165.198-.067.449.012.766l.03-.031c.139-.277.479-.016.39.434.076.469-.26.426-.039.833l.275-.558c-.042-.739-.533-1.157-.668-1.444zM2.878 159.06l.021.265c.057-.118.024-.197-.021-.265z"/><polygon points="2.838,160.074 2.908,160.325 3.052,160.266"/><path d="M2.794 156.411c.463.117-.049 1.185.311 1.313-.02-.651.319-1.175.574-1.032l-.144-.722c-.175-.242-.522.064-.741.441zM3.966 154.996l-.079-.164c.018.078.042.145.079.164zM3.17 151.341l.466 1.688c-.149-.156-.294-.095-.347-.479-.062.748.233.845.187 1.46-.432.187-.031-1.087-.417-.732.013.435.032 1.087.397 1.435l-.295.69.475-.233c.136-.281-.372-.565-.042-.737.203-.088.242.192.29.391-.096-.446.37-1.22.308-2.125-.049-.955-.795-.729-1.022-1.358z"/><polygon points="3.691,151.276 3.876,151.164 3.626,151.241"/><path d="M3.073 149.434l.297.879c-.041.095-.14.147-.227.211l.385.164c.428-.405-.137-1.075-.212-1.548.193-1.246.229.058.634-.428-.011.35-.113.362-.143.846.482-.763.04-1.722-.08-2.212-.043.144-.175.18-.137.449l-.141-.508c-.339.526-.43.976-.376 2.147zM3.077 151.005c-.032-.328 0-.448.061-.479-.116.086-.2.198-.061.479zM3.716 147.082c-.027.055-.018.145.012.264.017-.059.022-.138-.012-.264zM3.208 147.581l.045-.615-.203.242c.023.086.054.388.158.373zM3.862 124.021c-.174.056-.26.281-.226.756-.232-.056-.187-.673-.32-.962-.149.63-.272-.01-.497.15-.022.701.279 1.013.218 1.763-.065-.036-.168-.021-.249.075.146.902.363 2.433.164 3.313-.087.851.022 1.481.127 2.415-.121 3.069.118 6.271-.1 9.572l.452.468c-.226.16.001.786-.292.693.056-.181.009-.353.003-.569-.397.707.033 1.874-.109 2.722.081-.097.474-.235.543.02-.503-.068.009 1.001-.568 1.248-.144.85.439.034.359.916.296.094.144-.848.367-1.007.24.277-.102.8.21.761.147-1.416-.47-4.046-.638-6.208l.278.228c-.199-1.109-.209-2.9.244-3.787-.264.209.143-1.633-.459-1.469.138-.279.116-.364.167-.763l-.191-.107c.005-.569.298-.477.279-1.128-.258.425-.335-.046-.55-.235.289-.747.542-1.615.779-2.279-.084.053-.179.111-.29.339.091-.449-.156-.373-.245-.494-.013-.435.322-.389.49-.367.103-.797-.535-1.153-.321-1.75l-.267.208c-.064-.82.229-1.513.139-2.418.365-.439.315.745.473 1.121.076-.186.097-.575.217-.701-.187-.386-.439-1.037-.615-1.52.424.459.401-.696.428-1.004zM4.05 126.543l.146.263c-.022-.087-.047-.17-.03-.302l-.116.039zM3.862 124.021l.043-.019c-.024-.091-.035-.064-.043.019zM2.929 129.233l.023-.117.01-.149-.033.266zM4.14 129.911c-.094.177-.189.421-.285.694.12-.076.213-.14.285-.694zM3.84 135.451c.047.17.127.072.214.189.01-.349-.076-.468-.214-.189z"/><polygon points="4.119,125.549 4.037,124.859 3.965,124.606"/><path d="M2.733 111.574c-.317.608-.123 1.502-.188 2.251.166 1.377.695.174.733 1.48l-.654-.225c.039 1.306-.097 3.155.478 4.264-.08.097-.178.328-.271-.012.025.871.932.451.715 1.613-.406-1.084-.387.354-.792.058l-.046-.169c.042.736.258 1.712.23 2.199.169.02.426-.405.446.248.033-.265.224-.158.392-.138-.186-.674-.071-1.039-.293-1.449l.289-.124-.203-.54c.051-.399.22.41.266-.21-.127-.07-.268-.574-.238-1.06l.076.14c-.088-.37.02-.897-.344-.717l.362-.439-.248.077c.098-1.018.69-1.398.381-2.712-.074.312-.208.024-.255-.144-.172.547.187.676.22 1.193-.248.077-.544-.804-.692-.173.294-.692-.038-1.305.581-1.602.039-.835-.263-1.146-.121-1.994l.093.023c-.409-.157.185-.688-.234-1.314l-.092.446c-.167-.021-.173-.239-.203-.54.065.034.065.034.146-.063-.296-.094-.344-1.048-.431-1.167-.051.399.193.892.269 1.362-.174-.235-.422-.162-.372-.562zM3.815 120.17l-.143-.269c.025.111.067.21.143.269zM3.252 107.798l.386-.354c-.205-.542-.422.619-.729.093.179-.329-.13-.858-.136-1.077.175.242.567.104.648.006-.11-.205.085-.665.096-1.016l-.414.053c-.233-.059-.404-.866-.225-1.196.168.024.133.291.14.508.319.179.171-.545.462-.669-.442-.819-.412-3.442-1.123-2.696-.136.279.035.519.066.821.143-.851.375-.006.503.067-.114.363.111.988-.144.847l-.267-.578c-.134 1.851-.083 4.378.021 6.505l.014-.92c.192.106.205.541.298.879l.468-.451c-.034.266.035.52-.133.498.198.322.318.177.48-.018.082.687-.101.8.206 1.328.384-1.141-.319-.963.018-2.272l-.635-.358z"/><polygon points="3.51,110.299 3.272,110.023 3.39,110.443"/><path d="M2.476 109.86l.252.144c.069-.533-.075-.471-.252-.144zM3.5 103.442l-.082-.686-.091.446c.105-.011.149.157.173.24zM2.276 98.621c.048.954.268 1.363.029 2.441.307.527.575-.248.854-.021.068-.534-.451-.468-.552-1.021.265-.207-.058-.812.003-1.342-.109.066-.233.066-.334-.057zM3.29 95.336c.003-.435-.203-.874-.075-1.22.167.048.228.309.183.571.377-.166-.059-.481.193-.954-.041.041-.105.214-.188.082.089-1.175-.31-.66-.094-2.182-.104-.222-.102-.438-.352-.401.316-.864.314-.428.592-1.467-.146.04-.482.38-.795.373.44-1.47-.062-1.5.268-2.438.016.104.098.231.055.483.438-.121-.08-.786.007-1.306l.374.049c-.059-.48-.305-1.313-.031-1.918l.188.137c-.285-1.229-.153-2.664-.294-3.713l.232-.562c-.285-1.444-.131 1.436-.69.377.69-.158-.225-.745.05-1.566.274-.387.144.83.456.402-.353-.183-.102-.438-.203-.877.333.095.045-.913.421-.646l-.618-1.539c.189-.247.157-.693.109-1.021-.004.83-.496-.229-.65.704.16 1.354.273 3.624.098 5.321.459.185-.005 1.089.369 1.359l-.418.208c.098 1.092.251-.256.418.009.06.48-.215.866-.381.821-.024.783.125.089.372.488l-.503.511c.155 2.444.494 5.677.207 8.459l.314-.208c-.173 1.258.699 2.107.025 3.224l.27.383c-.153-.21-.472.217-.686-.113.107.343-.013.707.085 1.062l.15-.63c.267.442.102.929-.131 1.076.315.939.543-.559.808-.768-.581-1.324.569-1.334.326-2.604-.185-.785-.294.084-.461.034zM2.429 96.975l.084.193-.084-.193zM3.077 76.002l-.019-.371c-.079-.126-.023.075.019.371z"/><polygon points="2.61,98.679 2.616,98.676 2.61,98.666"/><polygon points="3.382,99.31 3.392,98.96 3.248,99.021"/><path d="M3.472 72.284l-.165-.004c.051.034.104.048.165.004zM3.573 62.218l-.008.216c.024-.067.02-.143.008-.216zM3.229 38.061c-.102-.656-.201-1.531-.469-2.014l.166.047c-.081-.353-.346-1.49-.642-.756l.145.178c.245.833-.274.604-.381 1.256.077.786.701 1.235.554 1.928.018.307-.149.258-.273.169-.046.696.433.969.495 1.449-1.253.189.341 2.143-.456 3.173.102.654-.008 1.524.239 2.358-.313-.442-.026.785-.38.602.729.234-.324 2.39.592 2.541-.257 1.127.062.047-.154 1.35-.103-.002-.103-.222-.122-.308-.189.518.391.793-.028 1.22-.067 1.043.249.178.495.793-.107 1.088-.232.782-.61 1.382.438.096.226.747.452 1.275.021-.131.107-.87.273-.386-.07 1.263.288 1.01.405 2.189-.482.598-.015-1.178-.395-.141-.225-.747-.203-1.313-.555-1.714-.026 1.005.051 2.226.254 3.321-.065.608-.228-.312-.271.167-.214 1.085.491 1.668.278 2.536l-.249-.181c.331.531-.073 1.917.11 2.922.125-.126.209-.212.292-.078-.624-.016.327 1.401-.114 2.393.396-.079.62.885.661 1.497-.108.215-.274.169-.38.167.236-.998-.431-.969-.615-1.759.206.659-.008 1.746.281 2.317l-.311-.224c-.045.913.705.799.407 1.753l-.229-.093c.031 1.918-.376 4.175.137 5.713.188.135.629-.64.776-.681-.163-.918-.495-1.449-.658-2.148l.357.006c-.245-.159-.391-1.001-.583-.536-.183-.57.314-.43.11-1.086.374.05.414.444.726.451l-.184-.57.272-.17c-.453-1.055.176-1.477-.028-2.571l-.066.609c-.208-.005-.187-.354-.247-.616.293-.299.253-.475.381-1.038-.164-.483-.538-.753-.535-1.406.396.141.215-1.086.548-1.208-.394-.14-.14-1.269-.367-1.359-.081-.351-.039-.831.172-.826l.068.264.013-.35.087.061c.01-.311-.277-.313-.082-.714.104.003.102.219.144.396.067-.829-.597-1.454-.239-2.141-.186-.135-.202-1.095-.622-.886.149-.258.481-.164.422-.863-.353-.399.13-.781-.098-1.309.371.706.104.002.457.621.146-.477-.328-1.185-.264-2.014l.273-.167c-.124-.309-.413-.662-.12-.96l-.251.038c.129-.565.049-1.35.323-1.956l-.476-.706c.504-.949.051-2.222-.381-2.974.021-.348.108-.87.214-.867l.173.378c.018-.512.289-1.137-.106-1.423-.122-.526.273-.386.337-.777-.557-1.061.412-3.13-.439-3.455-.004.437-.174 1.261-.138 2.089-.103-.22-.27-.05-.288-.354-.038-.832.276-1.258.135-2.089l.541.1c.551-1.425-.735-2.719.041-3.835zM3.217 48.695l.274-.602-.233.064c.038.187.038.376-.041.538zM3.258 48.157c-.025-.124-.065-.243-.11-.351-.005.131.005.258.051.366l.059-.015zM3.138 35.665c.021-.133.065-.394.004-.657-.065.173-.086.523-.004.657z"/><polygon points="2.975,34.962 2.89,35.265 2.952,35.309"/><path d="M2.503 17.343l-.33-.969c.167-.169-.035-1.264.253-.909-.392-.576-.011-1.829-.576-1.364.195 2.837-.138 6.753.366 10.035l-.226-.528c.448 1.708-.493 2.34.396 3.712l-.456-.183c-.128.781.66 1.496.178 2.313l.187-.083-.087.523.084-.087c.184.571.162.919.035 1.482-.146.041-.062-.263-.102-.438-.148.259.162.702.159 1.139-.127.345-.208-.005-.271-.051.202 1.312-.28 1.911.402 2.842.125.091.232-.341.291.137.215-.866-.054-1.57-.238-2.359l-.002.219c-.662-.625.15-.476-.136-1.485.269.266.267.704.412.88.506-1.166-.387-1.665.265-2.434l.019.086c.062-.173-.061-.48-.121-.742-.084.085-.127.344-.191.518-.061-.264-.352-.399-.476-.49.293-.298-.144-.395.004-.872.271-.168.248.397.394.575l-.186-.572c-.018-.521.296-.515.442-.773-.207-.44-.146.259-.437-.098.336-.56.242-2.958-.021-4.098.038.396.29.138.246.618.062-.174-.08-.784-.288-.79-.184-.79-.054-1.79.138-2.526l-.21.212c-.35-.618.26-1.563.055-2.656l-.004.023c-.045-.352-.552-.654-.447-1.299.25.18.229.528.479.492zM2.021 13.495l.291.355c.064-.392-.308-.879-.496-.795.062.261-.066.609.101.657.041-.046.145-.043.104-.217zM1.975 6.172c-.067-.144-.176-.107-.257-.168.036 1.551.151 3.464-.075 4.082-.085.524.351.618.452 1.274l-.293.297c.186.354-.134 1.438.348 1.055.042-.042-.227-.31-.142-.614l.166.049-.058-.699.208.222c.296-.953-.624-.668-.431-1.84l.419.01c.024-.786-.12-1.18.133-1.872 0 0-.208-.005-.124.126-.023.133-.19.303-.315.212l.42-.644c-.286-1.009-.526-2.931-.19-3.49-.253.474-.52-.232-.497-.796.147-.258.248.18.373.27.045-.261.15-.475.088-.74-.23.343-.543.119-.684-.495-.258 1.346.507 2.411.459 3.761zM1.622 5.77c.014.14.051.201.096.234l-.01-.538-.086.304z"/></g><g fill="#678EA9"><polygon points="316.271,0 316.182,0.465 316.438,0.613"/><path d="M315.352 2.21l.107.802c.74-.46.525.158 1.055-1.092-.115-.438-.372-1.403-.662-1.276.031.314.313.776.223 1.245-.213-.201-.188-.703-.465-.938-.229.754.18.474.077 1.305l-.335-.046zM316.088 3.156c-.127-.073-.254-.149-.357-.136.126.076.284.464.357.136zM316.165 3.644c-.028.506-.272-.008-.313.044l.477.572-.164-.616zM316.133 5.743l.045.234c.076-.081.011-.147-.045-.234zM316.189 6.774c.165-.207.067-.467-.012-.797l-.03.032c-.139.289-.479.017-.39-.45-.076-.487.26-.443.039-.866l-.275.58c.042.768.534 1.202.668 1.501zM316.133 5.743l-.021-.275c-.057.122-.024.204.021.275z"/><polygon points="316.173,4.688 316.103,4.427 315.959,4.49"/><path d="M316.217 8.497c-.463-.122.049-1.231-.311-1.366.02.678-.319 1.222-.574 1.074l.144.75c.174.253.522-.066.741-.458zM315.045 9.969l.079.17c-.019-.081-.042-.151-.079-.17zM315.841 13.77l-.466-1.757c.148.163.294.099.347.498.062-.777-.233-.878-.187-1.518.432-.193.031 1.131.417.761-.013-.451-.032-1.13-.397-1.492l.295-.717-.475.243c-.137.292.371.588.042.767-.203.091-.241-.201-.29-.407.096.463-.369 1.268-.308 2.21.049.992.794.757 1.022 1.412z"/><polygon points="315.319,13.835 315.135,13.953 315.385,13.872"/><path d="M315.938 15.751l-.297-.914c.041-.099.14-.153.227-.219l-.385-.171c-.428.422.137 1.119.212 1.61-.193 1.296-.229-.06-.634.445.011-.363.113-.377.143-.88-.482.793-.04 1.791.08 2.3.043-.148.176-.187.137-.467l.141.528c.338-.546.43-1.013.376-2.232zM315.934 14.118c.031.341 0 .466-.061.497.115-.089.199-.204.061-.497zM315.295 18.197c.027-.057.018-.15-.012-.274-.017.061-.022.143.012.274zM315.803 17.678l-.045.641.202-.252c-.022-.09-.054-.404-.157-.389zM315.148 42.176c.174-.058.26-.292.227-.786.231.059.187.7.319 1 .149-.655.272.01.497-.156.022-.729-.279-1.053-.218-1.833.065.037.168.023.249-.078-.146-.938-.363-2.529-.164-3.446.087-.884-.022-1.54-.127-2.511.121-3.191-.117-6.52.1-9.953l-.452-.486c.226-.167-.001-.818.292-.721-.056.188-.009.366-.003.592.397-.736-.033-1.949.109-2.83-.081.1-.474.245-.543-.021.503.071-.009-1.041.568-1.298.144-.883-.439-.036-.359-.952-.296-.098-.144.881-.367 1.046-.24-.288.102-.832-.21-.791-.147 1.473.47 4.207.638 6.455l-.278-.236c.199 1.153.209 3.015-.244 3.938.264-.217-.143 1.698.459 1.527-.138.291-.115.379-.166.793l.19.111c-.005.592-.298.495-.279 1.173.258-.441.335.047.55.245-.289.777-.542 1.68-.779 2.37.084-.054.179-.116.29-.353-.091.468.156.388.245.514.013.452-.322.404-.49.382-.103.829.535 1.199.32 1.819l.268-.216c.064.853-.229 1.573-.139 2.514-.365.457-.315-.774-.473-1.166-.076.192-.097.598-.217.729.187.401.439 1.079.615 1.58-.424-.477-.4.724-.428 1.045zM314.961 39.553l-.146-.273c.022.091.047.177.03.314l.116-.041zM315.148 42.176l-.043.02c.025.094.036.067.043-.02zM316.082 36.755l-.023.122-.01.155.033-.277zM314.871 36.051c.094-.184.189-.438.285-.722-.12.08-.214.146-.285.722zM315.171 30.291c-.047-.177-.127-.075-.214-.197-.011.363.076.487.214.197z"/><polygon points="314.893,40.587 314.975,41.304 315.046,41.566"/><path d="M316.277 55.117c.317-.633.123-1.562.188-2.341-.166-1.431-.695-.181-.733-1.539l.654.233c-.038-1.357.097-3.281-.478-4.433.08-.101.178-.341.271.012-.025-.905-.932-.469-.715-1.677.406 1.126.387-.369.792-.06l.046.176c-.042-.766-.258-1.78-.23-2.287-.169-.021-.426.421-.446-.258-.033.275-.224.165-.392.143.186.701.07 1.08.293 1.507l-.289.129.203.562c-.051.415-.221-.426-.266.218.127.073.268.598.238 1.103l-.076-.146c.088.385-.02.933.344.745l-.362.457.248-.08c-.098 1.058-.69 1.454-.381 2.82.074-.325.208-.025.255.149.172-.569-.187-.703-.221-1.242.248-.08.545.836.693.18-.295.72.037 1.357-.582 1.666-.038.868.264 1.192.121 2.073l-.093-.024c.409.163-.185.715.234 1.367l.092-.465c.167.022.173.249.203.562-.065-.037-.065-.037-.146.065.296.098.344 1.089.432 1.213.051-.415-.193-.927-.27-1.417.176.249.424.174.373.589zM315.195 46.18l.143.279c-.024-.115-.067-.218-.143-.279zM315.759 59.043l-.386.368c.205.563.422-.644.729-.096-.179.341.13.892.136 1.119-.175-.251-.567-.108-.648-.006.11.213-.085.691-.096 1.056l.414-.054c.233.06.404.9.225 1.243-.168-.025-.133-.302-.14-.528-.319-.186-.171.567-.462.696.442.852.412 3.579 1.123 2.804.137-.292-.035-.54-.066-.854-.143.884-.375.006-.503-.07.114-.378-.111-1.027.144-.881l.267.602c.134-1.925.083-4.552-.021-6.764l-.015.958c-.192-.111-.205-.563-.298-.915l-.468.47c.034-.276-.035-.54.133-.518-.198-.335-.318-.184-.479.018-.082-.714.101-.831-.206-1.38-.384 1.186.319 1.001-.018 2.363l.635.369z"/><polygon points="315.501,56.443 315.738,56.73 315.621,56.293"/><path d="M316.535 56.899l-.252-.148c-.069.553.074.489.252.148zM315.511 63.572l.082.713.091-.465c-.105.014-.149-.161-.173-.248zM316.734 68.586c-.048-.992-.268-1.418-.029-2.539-.307-.548-.575.258-.854.021-.068.556.451.487.552 1.062-.265.215.058.844-.003 1.395.11-.067.234-.067.334.061zM315.721 72.001c-.003.452.203.91.076 1.269-.167-.05-.229-.321-.184-.595-.377.173.059.501-.193.992.041-.042.105-.223.188-.085-.089 1.221.31.686.094 2.269.104.23.102.455.352.417-.316.898-.314.445-.592 1.525.146-.042.482-.395.795-.388-.44 1.528.062 1.56-.268 2.534-.016-.108-.098-.24-.055-.502-.438.126.08.817-.007 1.357l-.374-.051c.059.5.305 1.366.031 1.995l-.188-.143c.285 1.277.152 2.77.294 3.861l-.231.585c.284 1.501.131-1.493.689-.393-.689.164.225.774-.05 1.629-.274.402-.144-.863-.456-.418.353.19.102.455.203.912-.333-.099-.045.95-.421.671l.618 1.601c-.189.256-.157.72-.109 1.062.004-.863.496.237.65-.732-.16-1.408-.273-3.769-.098-5.532-.459-.192.005-1.133-.369-1.413l.418-.217c-.098-1.136-.251.266-.418-.009-.06-.5.215-.9.381-.854.023-.814-.125-.093-.372-.508l.503-.531c-.154-2.541-.494-5.903-.207-8.796l-.314.217c.173-1.308-.699-2.191-.025-3.352l-.27-.398c.152.218.472-.225.686.118-.107-.357.013-.735-.085-1.104l-.149.655c-.268-.459-.103-.966.131-1.119-.315-.977-.543.581-.808.798.581 1.376-.569 1.386-.326 2.708.183.818.293-.086.46-.035zM316.582 70.297l-.084-.201.084.201zM315.934 92.104l.019.386c.078.131.023-.078-.019-.386z"/><polygon points="316.4,68.525 316.395,68.529 316.4,68.539"/><polygon points="315.629,67.87 315.619,68.233 315.763,68.17"/><path d="M315.539 95.97l.165.004c-.052-.035-.104-.049-.165-.004zM315.438 106.437l.009-.225c-.025.069-.021.149-.009.225zM315.781 131.554c.102.683.201 1.592.469 2.095l-.166-.049c.081.366.346 1.549.642.786l-.145-.186c-.245-.866.274-.628.381-1.306-.077-.817-.701-1.284-.554-2.006-.018-.318.149-.268.273-.176.046-.724-.434-1.007-.495-1.507 1.253-.196-.341-2.228.456-3.299-.102-.68.008-1.584-.239-2.451.313.46.026-.816.38-.626-.729-.244.324-2.485-.592-2.642.257-1.172-.062-.05.154-1.403.103.002.103.231.121.32.189-.538-.391-.825.028-1.269.067-1.085-.249-.186-.495-.825.107-1.131.232-.813.61-1.437-.438-.101-.226-.776-.452-1.326-.021.137-.107.904-.273.401.07-1.312-.287-1.05-.405-2.276.482-.621.015 1.226.396.146.225.776.202 1.366.555 1.782.025-1.045-.052-2.314-.254-3.454.064-.632.228.325.271-.173.214-1.128-.491-1.734-.278-2.637l.249.189c-.331-.553.073-1.995-.11-3.039-.125.132-.209.221-.292.081.626.018-.325-1.456.116-2.488-.396.081-.62-.921-.661-1.556.108-.225.274-.176.38-.174-.236 1.038.431 1.008.615 1.829-.206-.686.008-1.815-.281-2.41l.312.233c.046-.95-.704-.831-.407-1.823l.229.098c-.031-1.995.376-4.342-.137-5.94-.188-.141-.629.666-.776.708.163.955.495 1.507.658 2.233l-.357-.007c.245.166.391 1.042.583.558.183.593-.314.446-.11 1.13-.374-.053-.414-.463-.726-.469l.184.593-.272.177c.453 1.097-.176 1.535.028 2.673l.066-.633c.208.005.187.368.247.64-.293.312-.253.494-.381 1.079.164.503.538.783.535 1.462-.396-.146-.215 1.13-.548 1.258.395.145.141 1.317.367 1.412.081.364.039.863-.172.858l-.068-.274-.013.364-.087-.064c-.01.324.277.326.082.742-.104-.003-.102-.228-.144-.41-.067.86.597 1.512.239 2.226.186.141.202 1.138.621.922-.148.269-.48.17-.422.896.353.415-.13.812.098 1.36-.371-.733-.104-.001-.457-.646-.146.496.328 1.231.264 2.094l-.273.175c.124.32.413.688.119.998l.252-.039c-.129.588-.049 1.404-.323 2.033l.476.734c-.504.986-.051 2.31.381 3.092-.021.361-.108.904-.214.9l-.173-.393c-.018.532-.289 1.182.106 1.479.122.547-.272.4-.337.808.557 1.104-.412 3.255.439 3.592.004-.454.174-1.312.138-2.173.103.229.27.052.288.369.038.864-.276 1.308-.135 2.172l-.541-.104c-.553 1.488.734 2.833-.043 3.993zM315.794 120.497l-.274.626.233-.066c-.038-.195-.038-.391.041-.56zM315.753 121.057c.025.129.065.253.11.365.005-.137-.005-.269-.051-.381l-.059.016zM315.873 134.046c-.021.139-.064.409-.004.683.065-.18.086-.543.004-.683z"/><polygon points="316.036,134.776 316.121,134.461 316.059,134.415"/><path d="M316.508 153.097l.329 1.007c-.167.176.034 1.314-.253.945.392.599.011 1.901.576 1.419-.195-2.951.138-7.022-.366-10.435l.226.55c-.448-1.776.493-2.434-.396-3.86l.458.19c.128-.812-.66-1.556-.178-2.405l-.187.087.086-.544-.084.091c-.184-.594-.162-.955-.035-1.542.146-.042.062.273.102.456.148-.27-.162-.729-.159-1.185.127-.358.208.005.271.054-.202-1.365.28-1.986-.402-2.955-.125-.094-.232.355-.291-.143-.215.9.055 1.633.238 2.453l.002-.228c.662.65-.15.495.137 1.544-.27-.277-.268-.732-.412-.916-.506 1.212.387 1.731-.265 2.531l-.019-.09c-.062.18.061.499.121.772.084-.09.127-.358.191-.539.061.274.352.415.476.51-.293.31.144.41-.004.906-.271.175-.248-.414-.394-.598l.186.594c.018.542-.296.535-.442.805.207.458.146-.27.437.102-.336.582-.242 3.076.021 4.262-.038-.411-.29-.144-.246-.643-.062.182.08.815.288.821.184.821.054 1.861-.138 2.627l.21-.221c.35.643-.26 1.626-.055 2.762l.004-.024c.045.366.553.681.447 1.352-.252-.188-.23-.55-.48-.512zM316.99 157.098l-.291-.369c-.064.407.309.913.496.827-.062-.272.066-.634-.101-.684-.041.048-.145.044-.104.226zM317.036 164.712c.066.149.176.111.257.174-.036-1.612-.151-3.602.075-4.244.085-.544-.351-.642-.452-1.325l.293-.309c-.186-.369.134-1.495-.348-1.098-.042.044.227.323.142.639l-.166-.051.058.728-.208-.231c-.296.99.624.694.431 1.913l-.418-.01c-.023.817.12 1.228-.133 1.945 0 0 .208.006.124-.13.022-.138.189-.314.314-.221l-.42.67c.286 1.049.526 3.047.19 3.629.252-.493.52.241.496.827-.147.269-.248-.187-.373-.28-.045.271-.15.494-.088.77.23-.356.543-.124.685.515.258-1.4-.508-2.508-.459-3.911zM317.389 165.13c-.014-.146-.051-.209-.096-.244l.01.56.086-.316z"/></g><g fill="#678EA9"><polygon points="0,6.128 0.857,6.15 1.129,6.087"/><path d="M4.07 6.358l1.477-.027c-.848-.185.29-.131-2.012-.263-.807.029-2.584.093-2.35.166.579-.008 1.43-.079 2.293-.056-.37.052-1.294.047-1.726.116 1.389.057.873-.045 2.402-.02l-.084.084zM5.812 6.174c-.135.032-.275.063-.25.09.14-.033.854-.072.25-.09zM6.71 6.155c.932.007-.016.068.081.079l1.054-.119-1.135.04zM10.577 6.163l.432-.012c-.151-.018-.273-.003-.432.012zM12.476 6.148c-.38-.041-.86-.017-1.467.003l.06.008c.532.035.031.12-.829.098-.898.019-.816-.065-1.596-.01l1.068.068c1.413-.01 2.213-.132 2.764-.167zM10.577 6.163l-.507.005c.225.015.376.006.507-.005z"/><polygon points="8.634,6.153 8.152,6.17 8.268,6.207"/><path d="M15.648 6.142c-.224.116-2.268-.012-2.515.078 1.248-.005 2.251.08 1.977.144l1.383-.036c.464-.045-.122-.132-.845-.186zM18.359 6.435l.314-.02-.314.02zM25.358 6.236l-3.235.117c.3-.037.182-.074.917-.087-1.431-.016-1.618.059-2.795.047-.356-.108 2.082-.008 1.401-.104-.831.003-2.08.008-2.747.1l-1.322-.074.447.119c.538.034 1.083-.093 1.413-.011.167.051-.369.061-.749.072.854-.023 2.335.093 4.07.077 1.828-.013 1.396-.199 2.6-.256z"/><polygon points="25.48,6.366 25.696,6.412 25.548,6.35"/><path d="M29.009 6.212l-1.683.074c-.182-.011-.282-.035-.403-.057l-.314.096c.777.107 2.06-.034 2.964-.053 2.387.048-.109.058.82.158l-1.621-.035c1.461.12 3.297.01 4.236-.021-.274-.011-.344-.043-.86-.034l.973-.035c-1.008-.084-1.869-.107-4.112-.093zM26.001 6.213c.627-.008.858 0 .915.015-.164-.029-.376-.05-.915-.015zM33.513 6.372l-.505.003.505-.003zM32.557 6.245l1.18.012-.465-.051c-.165.006-.743.014-.715.039zM77.674 6.409c-.106-.044-.538-.065-1.448-.057.108-.058 1.289-.047 1.843-.08-1.206-.037.019-.068-.288-.124-1.342-.006-1.939.069-3.375.054.069-.016.042-.042-.144-.062-1.728.036-4.658.091-6.346.041-1.628-.022-2.836.005-4.624.031-5.878-.008-12.005-.016-18.331-.024l-.895.113c-.307-.057-1.506 0-1.328-.073.346.014.674.002 1.09.001-1.354-.099-3.588.008-5.212-.027.185.02.451.119-.037.136.131-.125-1.918.002-2.39-.142-1.627-.036-.066.11-1.753.09-.18.074 1.622.036 1.927.092-.53.06-1.531-.025-1.456.053 2.712.037 7.748-.118 11.888-.16l-.435.07c2.124-.05 5.553-.053 7.251.061-.4-.065 3.126.036 2.812-.114.535.034.698.029 1.461.042l.205-.048c1.09.001.912.075 2.16.07-.813-.064.087-.084.451-.138l4.364.195c-.1-.021-.212-.045-.649-.073.862.023.715-.039.946-.061.832-.003.745.08.704.122 1.527.026 2.209-.134 3.351-.08l-.397-.066c1.57-.017 2.896.057 4.63.034.841.092-1.427.079-2.146.118.354.02 1.101.024 1.342.055l2.91-.154c-.884.104 1.328.098 1.919.105zM72.844 6.456l-.503.036.579-.007-.076-.029zM77.674 6.409l.036.011-.036-.011zM67.691 6.176l.224.006.286.002-.51-.008zM66.393 6.479l-1.33-.071c.147.029.27.052 1.33.071zM55.785 6.403l-.363.054c.669.002.898-.019.363-.054z"/><polygon points="74.748,6.473 76.067,6.453 76.551,6.435"/><path d="M101.507 6.127c-1.165-.08-2.876-.031-4.311-.047-2.636.041-.333.174-2.834.183l.43-.164c-2.5.01-6.042-.024-8.165.119-.184-.019-.627-.043.022-.067-1.667.006-.864.232-3.088.179 2.074-.102-.68-.097-.111-.198l.324-.012-4.211.058c-.039.042.776.106-.476.112.507.008.304.056.263.098 1.291-.047 1.99-.018 2.775-.073l.238.072 1.034-.051c.765.013-.785.055.402.066.135-.032 1.101-.067 2.03-.06l-.268.019c.708-.021 1.718.005 1.372-.086l.841.091-.147-.062c1.949.024 2.678.172 5.193.095-.599-.019-.047-.052.275-.063-1.048-.043-1.295.046-2.287.055-.147-.062 1.539-.136.332-.173 1.327.073 2.5-.01 3.067.145 1.599.01 2.196-.066 3.818-.03l-.044.023c.3-.102 1.317.046 2.517-.059l-.855-.023c.041-.042.458-.043 1.036-.051l.12.036c.18-.074 2.007-.086 2.235-.107-.765-.013-1.708.048-2.609.067.457-.043.318-.105 1.082-.092zM85.047 6.397l.515-.036c-.211.007-.402.017-.515.036zM108.739 6.256l.677.096c1.037-.051-1.186-.105-.177-.182.629.044 1.642-.033 2.062-.034-.463.043-.199.142-.011.162.393-.028 1.273.021 1.944.023l-.1-.104c.111-.058 1.658-.101 2.29-.056-.047.042-.557.033-.973.035-.341.08 1.045.042 1.282.116 1.569-.111 6.592-.104 5.164-.281-.537-.034-.993.009-1.574.017 1.628.036.011.094-.128.126-.696-.028-1.893.028-1.622-.036l1.107-.066c-3.544-.033-8.384-.021-12.457.005l1.763.003c-.205.048-1.037.051-1.685.074l.865.117c-.508-.009-.995.009-.954-.033-.618.05-.338.08.033.12-1.313.021-1.53-.025-2.542.051l4.352.004.684-.157z"/><polygon points="103.949,6.321 104.478,6.262 103.674,6.291"/><path d="M104.789 6.062l-.274.062c1.02.019.902-.018.274-.062zM117.079 6.318l1.314-.021-.855-.022c.023.026-.3.037-.459.043zM126.312 6.013c-1.827.012-2.61.066-4.675.007-1.01.077.476.144.039.214 1.023.017.896-.113 1.957-.138.396.066 1.555-.014 2.568 0-.125-.028-.125-.058.111-.083zM132.602 6.266c.833.001 1.675-.051 2.337-.019-.092.042-.591.057-1.095.046.319.094.923-.015 1.827.048-.079-.01-.41-.026-.157-.047 2.25.022 1.264-.077 4.178-.023.424-.026.838-.025.768-.088 1.655.079.82.079 2.81.148-.077-.037-.728-.121-.715-.199 2.814.11 2.874-.016 4.667.067-.2.004-.443.024-.924.014.231.109 1.504-.02 2.5.001l-.094.093c.919-.015 2.515-.076 3.672-.008l-.263.047c2.353-.071 5.101-.038 7.111-.073l1.076.058c2.765-.071-2.75-.033-.723-.172.302.172 1.426-.057 3 .012.741.069-1.59.036-.771.114.351-.088.839-.025 1.681-.051-.182.083 1.748.012 1.235.105l2.947-.154c.472.047 1.326.039 1.955.027-1.589-.001.438-.124-1.349-.163-2.593.04-6.94.068-10.189.024-.354.115-2.086-.001-2.603.093l-.399-.104c-2.091.024.489.062-.017.104-.92.015-1.658-.054-1.572-.096-1.5-.006-.17.031-.936.093l-.978-.125c-4.68.039-10.873.123-16.2.052l.399.078c-2.409-.043-4.036.175-6.172.007l-.733.067c.402-.039-.415-.118.217-.172l-2.033.021 1.206.038c-.846.067-1.779.025-2.06-.033-1.799.079 1.07.136 1.47.202 2.534-.145 2.553.142 4.986.082 1.511-.045-.153-.072-.059-.114zM129.464 6.051l-.369.021.369-.021zM169.626 6.213l.71-.005c.241-.02-.144-.006-.71.005zM126.201 6.096l.006.002.019-.002h-.025z"/><polygon points="124.994,6.289 125.663,6.291 125.547,6.255"/><path d="M176.744 6.312l.008-.042-.008.042zM196.021 6.336l-.415-.002.415.002zM242.279 6.251c1.256-.025 2.931-.051 3.856-.117l-.091.041c.676-.02 2.854-.086 1.449-.16l-.341.036c-1.596.062-1.158-.068-2.406-.095-1.505.019-2.365.175-3.693.138-.586.005-.494-.037-.323-.068-1.333-.011-1.855.108-2.775.124-.362-.313-4.103.085-6.075-.114-1.253.026-2.918-.002-4.516.06.848-.079-1.503-.006-1.152-.095-.449.183-4.577-.081-4.865.148l-2.584-.039c.003-.026.426-.026.59-.031-.991-.047-1.519.098-2.337-.007-1.997-.017-.341.062-1.519.124-2.084-.027-1.499-.059-2.646-.153-.185.109-1.43.056-2.441.113.251.005 1.665.027.739.068-2.418-.018-1.934.072-4.191.102-1.146-.121 2.255-.004.269-.099 1.43-.057 2.516-.051 3.281-.139-1.924-.007-4.262.013-6.359.063-1.164-.017.598-.057-.319-.068-2.077-.053-3.194.123-4.855.07l.348-.062c-1.017.083-3.673-.019-5.597.027.242.031.406.053.15.073.031-.156-2.683.081-4.583-.029.149.099-1.696.155-2.866.165-.413-.027-.323-.069-.318-.095 1.911.06 1.854-.107 3.367-.153-1.262.051-3.343-.002-4.438.07l.429-.078c-1.749-.011-1.53.176-3.356.102l.18-.057c-3.675.008-7.996-.094-10.941.034-.259.047 1.227.157 1.305.194 1.758-.041 2.774-.124 4.113-.165l-.013.089c.306-.061 1.918-.098 1.026-.146 1.092-.045.823.079 2.08.028l-.863.181 1.092-.046.325.068c2.021-.113 2.828.044 4.925-.007l-1.167-.017c.009-.052.679-.047 1.179-.062.573.073.909.063 1.987.095.926-.041 1.441-.135 2.693-.134-.27.099 2.08.054 2.314.137.267-.099 2.428-.035 2.602-.092.671-.02 1.591-.01 1.581.043l-.505.017.669.003-.117.021c.597.003.601-.069 1.367-.021-.006.026-.419.025-.757.036 1.586.017 2.784-.149 4.1-.06.258-.047 2.096-.051 1.697-.156.494.038.312.121 1.651.106.766-.088 1.496.032 2.506-.024l-1.188.114c.913.036 2.269-.082 3.855-.066l.321.068c.591-.031 1.267-.103 1.839-.03l-.071-.063c1.082.032 2.585.013 3.744.081l1.352-.119c1.817.126 4.255.013 5.693-.095l1.082.019c.333.009.581.021.578.035l-.725.043c.98.004 2.178.072 2.725-.027 1.008-.03.738.068 1.487.084 2.032-.14 5.994.103 6.615-.11l-4.001-.034c.421-.025.096-.067.679-.072 1.593-.009 2.409.069 4.001.034l-.19.135c2.728.143 5.207-.178 7.343.016zM221.916 6.248l1.153.069-.124-.059c-.356.01-.718.01-1.029-.01zM222.945 6.258l.673-.027c-.252-.001-.494.001-.701.013l.028.014zM246.868 6.228c.255.006.754.017 1.258.001-.332-.016-1.001-.022-1.258-.001z"/><polygon points="248.213,6.187 247.633,6.166 247.549,6.182"/><path d="M281.953 6.069l1.854-.083c.324.042 2.42-.009 1.741.063 1.103-.098 3.502-.002 2.612-.144-5.435.048-12.933-.035-19.216.091l1.012-.056c-3.271.112-4.481-.124-7.109.099l.351-.114c-1.495-.032-2.864.165-4.43.044l.159.046-1.001-.021.168.021c-1.094.046-1.76.04-2.84.009-.078-.037.504-.016.839-.025-.496-.037-1.344.04-2.181.04-.66-.032.01-.052.099-.068-2.514.051-3.658-.07-5.441.101-.174.031.653.059-.263.073 1.657.054 3.006-.014 4.517-.06l-.419-.001c1.198-.165.912.038 2.844-.034-.51.067-1.349.067-1.687.103 2.232.126 3.188-.097 4.661.066l-.165.004c.331.016.92-.015 1.422-.03-.165-.021-.659-.031-.992-.047.506-.015.765-.088.938-.119.571.073.756-.036 1.669.001.322.068-.762.062-1.101.098l1.095-.046c.998-.005.985.074 1.481.11l.188-.109c1.071.084 5.664.061 7.848-.005-.758.01-.265.072-1.183.062.333.016 1.501-.02 1.513-.072 1.513-.046 3.427-.013 4.838.035l-.407-.052c1.183-.088 2.994.065 5.087.014l-.045-.001c.674-.012 1.253-.138 2.488-.112-.347.062-1.013.057-.944.119zM289.321 5.948l-.68.073c.75.016 1.683-.077 1.523-.124-.501.015-1.167-.017-1.258.025.088.011.08.037.415.026zM303.345 5.937c.275-.017.205-.044.32-.064-2.971.009-6.634.038-7.816-.019-1.002-.021-1.183.087-2.439.113l-.569-.073c-.68.047-2.754-.033-2.021.087.081.011.595-.057 1.177-.035l-.097.041 1.34-.014-.426.052c1.824.074 1.279-.156 3.522-.107l-.018.104c1.505.006 2.261-.03 3.584.033 0 0 .01-.052-.241-.031-.253-.006-.578-.047-.405-.079l1.233.105c1.932-.071 5.612-.132 6.684-.048-.907-.062.444-.13 1.523-.124.494.037-.345.062-.517.094.501.011.91.037 1.417.021-.656-.057-.229-.136.948-.171-2.576-.064-4.614.127-7.199.115zM304.114 5.849c-.268.004-.385.013-.449.024l1.031-.003-.582-.021z"/></g><g fill="#678EA9"><polygon points="315.089,161.995 314.219,161.973 313.943,162.036"/><path d="M310.959 161.765l-1.498.027c.86.185-.295.131 2.041.264.819-.029 2.622-.094 2.384-.166-.587.008-1.45.078-2.326.056.376-.053 1.313-.047 1.752-.116-1.409-.057-.886.045-2.438.02l.085-.085zM309.191 161.949c.137-.032.279-.063.254-.09-.141.033-.866.072-.254.09zM308.28 161.968c-.945-.007.016-.067-.082-.078l-1.07.119 1.152-.041zM304.357 161.96l-.438.012c.152.018.276.003.438-.012zM302.431 161.975c.386.041.873.017 1.488-.003l-.061-.008c-.539-.035-.031-.12.842-.098.911-.019.828.065 1.618.01l-1.084-.068c-1.432.009-2.245.132-2.803.167zM304.357 161.96l.514-.005c-.228-.015-.381-.006-.514.005z"/><polygon points="306.328,161.97 306.817,161.952 306.699,161.917"/><path d="M299.212 161.981c.227-.116 2.301.012 2.552-.078-1.267.005-2.283-.08-2.006-.144l-1.403.036c-.471.045.124.132.857.186zM296.462 161.688l-.319.02.319-.02zM289.359 161.888l3.282-.117c-.305.037-.185.074-.93.087 1.452.016 1.641-.059 2.836-.047.361.108-2.112.008-1.422.104.842-.003 2.11-.008 2.786-.1l1.342.074-.454-.119c-.546-.034-1.099.093-1.434.011-.17-.051.375-.061.761-.072-.867.023-2.37-.093-4.13-.077-1.852.012-1.415.198-2.637.256z"/><polygon points="289.235,161.757 289.017,161.711 289.167,161.773"/><path d="M285.655 161.911l1.708-.074c.184.011.285.035.409.057l.319-.096c-.789-.107-2.091.034-3.008.053-2.422-.049.111-.058-.832-.158l1.645.035c-1.482-.12-3.346-.01-4.298.021.277.011.35.044.873.034l-.987.035c1.023.084 1.895.107 4.171.093zM288.707 161.91c-.637.008-.871 0-.929-.015.167.029.383.05.929.015zM281.086 161.751l.513-.003-.513.003zM282.056 161.878l-1.196-.012.471.051c.166-.006.753-.014.725-.039zM236.278 161.714c.108.044.546.065 1.47.057-.109.059-1.308.047-1.869.08 1.224.037-.02.068.292.124 1.361.006 1.968-.069 3.425-.054-.07.016-.043.041.146.062 1.754-.036 4.727-.091 6.439-.041 1.651.022 2.877-.005 4.691-.031 5.963.008 12.18.016 18.599.024l.907-.113c.312.057 1.528 0 1.348.073-.351-.014-.684-.002-1.106-.001 1.375.1 3.641-.008 5.288.027-.187-.02-.457-.118.038-.135-.133.125 1.946-.003 2.426.142 1.65.036.066-.11 1.778-.09.183-.074-1.646-.036-1.955-.092.538-.06 1.554.025 1.478-.053-2.752-.036-7.86.118-12.062.159l.441-.069c-2.155.05-5.635.053-7.357-.061.406.065-3.173-.036-2.854.114-.543-.034-.708-.028-1.482-.041l-.208.047c-1.106-.001-.926-.074-2.192-.069.826.064-.089.084-.457.138l-4.428-.195c.102.021.216.045.659.072-.875-.022-.726.039-.961.062-.844.003-.755-.08-.714-.122-1.549-.025-2.241.134-3.399.08l.403.066c-1.594.017-2.939-.057-4.698-.034-.854-.092 1.448-.079 2.178-.118-.358-.02-1.117-.024-1.361-.055l-2.952.154c.894-.106-1.35-.1-1.951-.107zM241.18 161.667l.511-.036-.587.008.076.028zM236.278 161.714l-.036-.011.036.011zM246.407 161.947l-.227-.006-.291-.002.518.008zM247.725 161.645l1.349.071c-.15-.029-.273-.053-1.349-.071zM258.488 161.72l.368-.054c-.679-.003-.911.02-.368.054z"/><polygon points="239.248,161.65 237.908,161.671 237.418,161.688"/><path d="M212.097 161.996c1.183.079 2.918.031 4.374.047 2.674-.041.338-.174 2.876-.183l-.437.163c2.536-.01 6.131.024 8.284-.119.188.02.637.044-.022.067 1.692-.006.876-.232 3.133-.179-2.104.102.69.097.113.198l-.329.012 4.272-.058c.04-.042-.787-.106.482-.112-.514-.008-.308-.056-.267-.098-1.31.047-2.019.018-2.815.073l-.241-.072-1.049.051c-.776-.013.797-.055-.408-.066-.137.032-1.117.067-2.06.06l.271-.019c-.72.021-1.743-.005-1.393.086l-.854-.091.149.062c-1.978-.025-2.717-.173-5.27-.096.608.019.048.052-.279.063 1.063.043 1.314-.046 2.32-.055.149.062-1.562.136-.336.173-1.346-.073-2.536.01-3.112-.146-1.622-.009-2.229.066-3.874.03l.044-.023c-.305.103-1.336-.046-2.554.059l.868.023c-.041.042-.465.043-1.05.051l-.123-.036c-.183.073-2.036.086-2.268.107.776.013 1.733-.048 2.647-.067-.458.046-.316.108-1.092.095zM228.797 161.726l-.521.036c.213-.006.407-.017.521-.036zM204.76 161.866l-.688-.096c-1.052.051 1.203.105.18.182-.639-.044-1.667.033-2.092.034.47-.044.201-.142.011-.162-.398.028-1.292-.021-1.973-.023l.102.104c-.112.058-1.683.101-2.323.056.048-.042.564-.033.987-.035.346-.079-1.061-.042-1.302-.115-1.592.111-6.688.104-5.239.281.545.034 1.008-.009 1.597-.017-1.651-.036-.011-.094.131-.126.706.028 1.92-.027 1.646.036l-1.124.066c3.597.033 8.507.021 12.64-.005l-1.789-.004c.208-.048 1.053-.051 1.71-.074l-.878-.117c.516.009 1.01-.009.968.033.627-.05.343-.08-.033-.12 1.333-.021 1.553.025 2.579-.052l-4.415-.004-.695.158z"/><polygon points="209.619,161.802 209.083,161.861 209.898,161.832"/><path d="M208.767 162.061l.278-.062c-1.035-.019-.914.018-.278.062zM196.297 161.805l-1.333.021.868.022c-.023-.027.304-.037.465-.043zM186.929 162.11c1.854-.012 2.649-.066 4.744-.007 1.025-.077-.482-.144-.04-.214-1.038-.017-.909.113-1.985.139-.401-.066-1.577.014-2.605-.001.126.028.126.058-.114.083zM180.547 161.857c-.844-.001-1.699.051-2.371.019.094-.041.601-.057 1.111-.046-.323-.094-.937.015-1.854-.048.079.01.416.026.158.047-2.282-.022-1.282.077-4.238.023-.431.025-.851.025-.779.088-1.68-.079-.832-.079-2.851-.148.078.037.738.121.726.199-2.855-.11-2.916.016-4.736-.067.203-.004.449-.024.938-.014-.235-.109-1.527.021-2.536-.001l.095-.094c-.933.015-2.552.076-3.726.008l.267-.047c-2.387.071-5.176.038-7.215.073l-1.092-.058c-2.806.07 2.79.032.733.172-.306-.172-1.447.057-3.044-.012-.752-.069 1.612-.036.781-.114-.355.088-.851.025-1.705.051.184-.083-1.774-.012-1.253-.105l-2.99.154c-.479-.047-1.346-.039-1.984-.027 1.613.001-.444.124 1.368.163 2.631-.04 7.042-.068 10.338-.024.359-.115 2.117.001 2.641-.093l.405.104c2.122-.024-.497-.062.018-.104.933-.015 1.682.054 1.595.096 1.522.006.173-.031.949-.094l.992.126c4.748-.038 11.031-.123 16.437-.052l-.404-.078c2.444.043 4.095-.175 6.263-.007l.744-.067c-.408.038.421.118-.221.172l2.063-.021-1.224-.037c.858-.067 1.805-.025 2.09.032 1.825-.079-1.086-.136-1.492-.202-2.57.146-2.59-.142-5.06-.081-1.53.045.159.072.063.114zM183.73 162.072l.375-.021-.375.021zM142.981 161.91l-.72.005c-.244.02.146.006.72-.005zM187.042 162.027l-.007-.002-.019.002h.026z"/><polygon points="188.267,161.834 187.588,161.832 187.705,161.868"/><path d="M135.759 161.812l-.008.041.008-.041zM116.2 161.786l.421.002-.421-.002zM69.266 161.872c-1.274.025-2.974.051-3.914.117l.092-.041c-.686.02-2.895.086-1.469.16l.346-.036c1.619-.062 1.174.068 2.441.095 1.527-.019 2.4-.175 3.747-.138.595-.005.501.037.329.068 1.352.011 1.882-.108 2.815-.124.368.313 4.163-.085 6.164.114 1.271-.025 2.961.002 4.582-.06-.86.078 1.525.006 1.169.095.456-.183 4.644.081 4.936-.148l2.622.039c-.003.025-.432.025-.598.03 1.006.047 1.541-.098 2.371.007 2.026.017.346-.062 1.541-.124 2.114.027 1.521.059 2.685.152.188-.109 1.451-.056 2.478-.112-.255-.006-1.69-.027-.75-.068 2.454.018 1.961-.072 4.253-.102 1.162.12-2.289.004-.273.099-1.45.057-2.552.051-3.33.139 1.952.007 4.325-.013 6.453-.063 1.181.017-.606.058.324.067 2.108.054 3.241-.122 4.926-.069l-.353.062c1.032-.083 3.727.019 5.679-.027-.246-.031-.413-.053-.152-.073-.032.156 2.722-.081 4.65.029-.152-.1 1.721-.155 2.908-.166.419.027.329.069.324.096-1.939-.06-1.882.107-3.417.153 1.281-.052 3.392.002 4.502-.07l-.435.078c1.774.012 1.552-.176 3.406-.102l-.183.057c3.728-.008 8.113.095 11.102-.034.262-.047-1.244-.157-1.324-.193-1.784.04-2.815.123-4.174.164l.013-.09c-.31.062-1.946.098-1.041.146-1.108.045-.835-.079-2.111-.027l.876-.182-1.108.046-.33-.068c-2.05.113-2.869-.044-4.996.007l1.184.017c-.01.052-.689.047-1.197.062-.581-.072-.922-.062-2.016-.095-.939.041-1.463.135-2.733.134.273-.099-2.111-.054-2.349-.137-.27.099-2.463.035-2.639.092-.681.02-1.614.01-1.604-.043l.512-.018-.679-.003.119-.021c-.604-.003-.609.069-1.387.021.006-.026.425-.025.768-.036-1.609-.017-2.825.149-4.16.06-.262.047-2.126.051-1.722.155-.501-.037-.317-.12-1.676-.105-.776.089-1.517-.032-2.542.024l1.207-.114c-.927-.036-2.301.082-3.912.066l-.326-.068c-.6.03-1.285.103-1.866.029l.073.063c-1.099-.032-2.624-.013-3.8-.081l-1.371.119c-1.844-.126-4.317-.013-5.777.095l-1.098-.019c-.337-.01-.589-.021-.586-.034l.735-.044c-.995-.004-2.209-.072-2.765.026-1.022.031-.749-.067-1.509-.084-2.062.14-6.082-.103-6.711.11l4.06.034c-.427.025-.097.067-.689.072-1.615.01-2.444-.069-4.06-.034l.194-.135c-2.772-.138-5.286.183-7.454-.011zM89.926 161.876l-1.17-.069.125.059c.363-.011.731-.011 1.045.01zM88.882 161.865l-.683.027c.256.001.501-.001.711-.013l-.028-.014zM64.609 161.896c-.259-.006-.765-.017-1.276-.001.337.015 1.016.021 1.276.001z"/><polygon points="63.245,161.937 63.833,161.957 63.919,161.941"/><path d="M29.012 162.054l-1.882.082c-.329-.041-2.456.009-1.767-.062-1.119.098-3.553.002-2.65.144 5.514-.049 13.122.034 19.497-.091l-1.027.056c3.318-.112 4.547.124 7.213-.099l-.355.114c1.517.032 2.906-.165 4.495-.044l-.162-.047 1.016.021-.17-.021c1.109-.046 1.786-.04 2.881-.009.079.037-.511.016-.851.025.503.037 1.363-.04 2.212-.04.67.032-.009.053-.1.068 2.55-.051 3.712.07 5.521-.101.176-.031-.663-.059.267-.073-1.683-.054-3.051.014-4.583.06l.425.001c-1.216.165-.925-.038-2.885.034.517-.067 1.368-.067 1.711-.104-2.265-.126-3.235.097-4.729-.065l.168-.005c-.336-.016-.933.015-1.442.03.167.021.668.031 1.006.048-.513.015-.776.088-.952.118-.579-.072-.767.036-1.693 0-.327-.068.773-.062 1.117-.099l-1.111.046c-1.013.005-1-.074-1.503-.11l-.19.109c-1.087-.084-5.747-.061-7.962.005.768-.01.269-.072 1.2-.062-.338-.016-1.523.021-1.535.072-1.535.046-3.477.013-4.909-.034l.413.052c-1.2.088-3.038-.064-5.161-.014l.046.001c-.684.012-1.271.139-2.525.112.349-.061 1.026-.056.956-.118zM21.535 162.175l.69-.073c-.762-.016-1.708.077-1.546.124.508-.016 1.184.017 1.276-.025-.088-.011-.08-.037-.42-.026zM7.307 162.187c-.279.016-.208.043-.325.063 3.014-.009 6.731-.038 7.931.019 1.017.021 1.2-.087 2.476-.112l.578.073c.689-.047 2.793.033 2.051-.087-.083-.011-.603.057-1.193.035l.095-.042-1.359.015.432-.052c-1.85-.074-1.298.156-3.574.107l.018-.104c-1.527-.006-2.293.03-3.636-.033 0 0-.009.052.245.031.257.006.587.048.411.079l-1.25-.105c-1.96.071-5.694.132-6.781.048.92.062-.451.13-1.546.124-.501-.037.349-.062.523-.094-.508-.011-.923-.037-1.438-.021.667.058.231.136-.962.171 2.612.063 4.681-.128 7.304-.115zM6.526 162.274c.271-.004.391-.013.456-.024l-1.046.003.59.021z"/></g><g fill="#678EA9"><polygon points="319.886,165.828 319.011,165.738 318.732,165.994"/><path d="M315.73 164.908l-1.507.106c.865.741-.297.526 2.054 1.055.823-.114 2.638-.371 2.398-.661-.591.031-1.46.313-2.342.223.379-.213 1.322-.188 1.764-.466-1.418-.229-.892.181-2.453.078l.086-.335zM313.952 165.645c.137-.127.281-.254.255-.358-.142.127-.871.284-.255.358zM313.035 165.722c-.951-.027.016-.273-.083-.313l-1.076.477 1.159-.164zM309.088 165.689l-.44.045c.153.077.277.012.44-.045zM307.149 165.746c.388.165.878.067 1.498-.012l-.061-.03c-.543-.139-.032-.479.846-.391.917-.075.834.261 1.629.039l-1.091-.274c-1.441.042-2.259.533-2.821.668zM309.088 165.689l.518-.021c-.231-.057-.384-.023-.518.021z"/><polygon points="311.071,165.729 311.563,165.659 311.445,165.515"/><path d="M303.911 165.773c.229-.463 2.315.05 2.567-.311-1.274.02-2.298-.319-2.019-.574l-1.411.144c-.474.175.125.523.863.741zM301.144 164.602c-.091.039-.199.065-.321.079.153-.019.283-.042.321-.079zM293.998 165.397l3.302-.467c-.307.149-.185.295-.936.348 1.461.062 1.651-.233 2.854-.187.364.432-2.125.031-1.431.417.848-.013 2.124-.032 2.804-.397l1.35.295-.457-.476c-.549-.136-1.104.372-1.441.043-.171-.203.377-.242.765-.29-.872.096-2.384-.37-4.155-.308-1.867.05-1.425.795-2.655 1.022z"/><polygon points="293.873,164.876 293.653,164.691 293.805,164.941"/><path d="M290.271 165.494l1.719-.297c.185.041.287.14.412.227-.067-.11.394-.295.32-.385-.793-.428-2.103.137-3.025.212-2.438-.193.111-.229-.837-.634.684.011.709.113 1.654.143-1.491-.481-3.366-.04-4.324.08.279.043.352.175.878.137l-.993.141c1.028.339 1.905.431 4.196.376zM293.342 165.49c-.641.032-.877 0-.935-.061.168.116.385.2.935.061zM285.674 164.852c.106.027.282.018.516-.012-.116-.018-.271-.023-.516.012zM286.649 165.359l-1.204-.046.474.203c.168-.022.759-.053.73-.157zM240.59 164.705c.108.174.549.26 1.479.226-.11.232-1.315.188-1.881.32 1.231.149-.02.272.294.497 1.37.022 1.979-.279 3.446-.218-.07.065-.044.168.146.249 1.765-.146 4.755-.363 6.479-.164 1.662.087 2.895-.022 4.72-.127 6 .121 12.259-.118 18.714.1l.913-.452c.313.227 1.538-.001 1.355.293-.353-.057-.688-.01-1.112-.004 1.383.397 3.663-.033 5.32.109-.188-.081-.46-.474.038-.543-.134.503 1.958-.009 2.44.568 1.66.144.067-.439 1.79-.359.184-.297-1.656-.144-1.968-.367.542-.24 1.563.102 1.487-.21-2.77-.147-7.909.47-12.137.638l.444-.278c-2.169.198-5.669.209-7.403-.244.409.264-3.191-.143-2.871.459-.546-.138-.712-.116-1.491-.167l-.209.191c-1.113-.005-.931-.298-2.205-.279.83.258-.09.336-.46.55-1.461-.289-3.159-.542-4.455-.779.102.084.217.179.662.29-.88-.091-.729.156-.966.245-.85.013-.76-.322-.719-.49-1.559-.103-2.255.535-3.42.321l.405.267c-1.604.064-2.957-.229-4.727-.139-.859-.365 1.456-.315 2.19-.473-.36-.076-1.124-.097-1.37-.217-.753.187-2.027.439-2.97.615.903-.424-1.355-.402-1.958-.428zM245.521 164.518c.224-.057.406-.105.515-.146-.171.022-.332.047-.591.029-.026.047.012.085.076.117zM240.59 164.705l-.037-.043c-.177.025-.126.035.037.043zM250.781 165.639l-.229-.023-.292-.01.521.033zM252.106 164.428c.345.094.822.189 1.357.285-.15-.12-.275-.214-1.357-.285zM262.936 164.728c.333-.047.141-.127.371-.214-.684-.011-.917.076-.371.214z"/><polygon points="243.577,164.448 242.229,164.53 241.736,164.603"/><path d="M216.259 165.834c1.189.317 2.937.123 4.401.188 2.69-.166.34-.695 2.893-.733l-.438.654c2.552-.039 6.168.097 8.335-.478.188.08.641.178-.022.271 1.703-.025.882-.932 3.152-.715-2.117.406.695.387.113.792l-.33.046c1.44-.042 3.347-.258 4.299-.23.04-.169-.792-.426.485-.446-.518-.033-.31-.224-.269-.392-1.317.186-2.031.071-2.833.293l-.242-.289-1.056.203c-.781-.051.802-.22-.41-.267-.138.128-1.124.269-2.073.238l.273-.075c-.724.088-1.754-.02-1.4.344l-.859-.362.15.248c-1.99-.098-2.734-.69-5.302-.381.611.074.048.208-.281.255 1.07.172 1.322-.187 2.335-.22.15.247-1.571.544-.339.691-1.354-.294-2.552.038-3.131-.58-1.632-.039-2.242.263-3.898.12l.045-.093c-.307.409-1.345-.186-2.569.234l.873.092c-.041.167-.468.173-1.057.203.068-.065.068-.065-.123-.146-.184.296-2.049.344-2.282.431.781.052 1.744-.192 2.664-.269-.466.175-.323.424-1.104.373zM233.062 164.752l-.525.143c.216-.025.41-.067.525-.143zM208.877 165.315l-.691-.386c-1.059.205 1.21.422.18.729-.642-.179-1.677.13-2.104.136.473-.175.203-.567.012-.648-.401.11-1.3-.085-1.985-.096 1.682.246-1.415.146.103.414-.113.233-1.692.404-2.338.225.048-.168.568-.133.993-.14.348-.319-1.066-.171-1.31-.462-1.602.442-6.729.412-5.271 1.123.547.136 1.014-.035 1.605-.066-1.662-.143-.011-.375.132-.503.71.114 1.932-.111 1.655.144l-1.13.267c3.618.134 8.559.083 12.717-.021l-1.8-.014c.209-.192 1.059-.205 1.72-.298l-.883-.468c.519.034 1.016-.035.974.133.631-.198.346-.318-.033-.48 1.342-.081 1.562.102 2.595-.205-2.229-.385-1.883.319-4.442-.018l-.699.634z"/><polygon points="213.767,165.058 213.227,165.295 214.047,165.178"/><path d="M212.908 166.092l.28-.252c-1.042-.069-.919.074-.28.252zM200.362 165.067l-1.342.082.874.091c-.024-.104.305-.148.468-.173zM190.937 166.291c1.864-.048 2.665-.268 4.772-.029 1.031-.307-.485-.575-.04-.854-1.044-.068-.915.451-1.997.552-.404-.265-1.588.058-2.622-.003.127.109.127.233-.113.334zM184.516 165.278c-.85-.004-1.711.202-2.386.074.094-.166.604-.228 1.117-.183-.325-.377-.941.059-1.865-.193.08.041.419.104.16.188-2.296-.089-1.29.31-4.266.094-.433.104-.855.102-.783.352-1.689-.316-.837-.314-2.868-.592.078.146.742.482.729.795-2.873-.44-2.934.062-4.765-.268.204-.016.451-.098.943-.055-.236-.438-1.536.079-2.552-.007l.096-.374c-.938.059-2.567.305-3.749.031l.269-.188c-2.402.285-5.208.153-7.26.294l-1.099-.232c-2.823.285 2.807.132.738.69-.308-.69-1.456.225-3.062-.05-.757-.274 1.622-.144.786-.456-.358.353-.856.102-1.715.203.186-.333-1.785-.045-1.261-.421l-3.009.617c-.482-.188-1.354-.156-1.996-.108 1.623.004-.447.496 1.376.65 2.648-.16 7.085-.273 10.402-.098.361-.459 2.13.005 2.657-.369l.407.418c2.135-.098-.5-.251.018-.418.939-.06 1.692.215 1.604.381 1.532.024.175-.125.955-.372l.998.503c4.778-.155 11.1-.494 16.539-.207l-.407-.314c2.459.173 4.119-.699 6.301-.025l.749-.27c-.41.153.423.472-.222.686.67-.107 1.383.013 2.075-.085l-1.23-.15c.863-.267 1.815-.102 2.103.132 1.837-.315-1.092-.543-1.501-.808-2.587.581-2.606-.569-5.091-.326-1.539.184.16.293.065.461zM187.719 166.139c.162-.024.284-.055.377-.084-.131.019-.253.046-.377.084zM146.718 165.49c-.191 0-.421.004-.725.019-.246.079.147.023.725-.019zM191.05 165.957l-.007-.006-.019.006h.026z"/><polygon points="192.282,165.186 191.599,165.176 191.717,165.319"/><path d="M139.451 165.096l-.008.165c.065-.052.093-.105.008-.165zM119.771 164.995l.423.008c-.131-.024-.28-.021-.423-.008zM72.548 165.338c-1.282.102-2.992.201-3.938.469l.092-.166c-.69.081-2.913.346-1.479.642l.348-.145c1.629-.245 1.182.274 2.456.381 1.536-.077 2.414-.701 3.77-.554.599-.018.504.149.331.273 1.36.046 1.894-.433 2.833-.495.371 1.253 4.188-.341 6.202.456 1.279-.103 2.98.008 4.61-.239-.866.313 1.535.026 1.177.38.458-.729 4.672.324 4.966-.592 2.204.257.092-.062 2.638.153-.003.104-.434.104-.602.122 1.013.189 1.551-.391 2.386.028 2.04.067.348-.249 1.551-.495 2.127.107 1.53.232 2.702.61.188-.438 1.459-.226 2.493-.452-.257-.021-1.701-.107-.755-.273 2.469.07 1.974-.288 4.28-.405 1.169.482-2.303.015-.275.395-1.459.226-2.567.203-3.35.555 1.964.026 4.352-.051 6.493-.254 1.188.065-.61.229.326.271 2.121.214 3.261-.491 4.957-.278l-.354.249c1.038-.331 3.749.073 5.713-.11-.248-.125-.416-.21-.153-.292-.032.626 2.738-.325 4.679.115-.153-.396 1.731-.619 2.925-.66.421.108.331.274.326.38-1.951-.236-1.894.431-3.438.615 1.289-.206 3.413.008 4.53-.281l-.438.312c1.785.045 1.562-.705 3.427-.407l-.184.229c3.751-.031 8.163.376 11.17-.137.264-.188-1.252-.629-1.332-.776-1.795.163-2.833.495-4.2.658l.013-.357c-.312.245-1.958.391-1.047.583-1.115.183-.84-.314-2.124-.11.099-.374.869-.414.881-.726l-1.114.184-.333-.272c-2.063.453-2.887-.176-5.027.028l1.191.066c-.01.208-.693.187-1.204.247-.584-.293-.928-.253-2.028-.381-.945.164-1.472.538-2.75.535.275-.396-2.124-.215-2.363-.548-.271.395-2.478.141-2.655.367-.685.081-1.624.039-1.615-.172l.516-.067-.684-.014.12-.087c-.608-.01-.613.277-1.396.082.006-.104.428-.102.773-.144-1.619-.067-2.842.597-4.186.239-.263.186-2.14.202-1.732.622-.504-.149-.319-.481-1.686-.423-.781.353-1.527-.13-2.559.098 1.38-.371.003-.104 1.214-.457-.933-.146-2.315.328-3.936.264l-.328-.273c-.604.124-1.293.413-1.878.12l.074.251c-1.105-.129-2.64-.049-3.823-.323l-1.379.476c-1.855-.504-4.343-.051-5.812.381-.68-.021-1.701-.108-1.694-.214l.739-.173c-1.001-.018-2.223-.289-2.782.106-1.028.121-.753-.273-1.519-.337-2.074.557-6.119-.411-6.753.439.853.004 2.465.174 4.085.138-.43.103-.098.27-.693.288-1.625.038-2.459-.276-4.084-.135l.195-.541c-2.789-.552-5.319.734-7.5-.042zM93.335 165.351l-1.177-.274.126.233c.365-.039.736-.039 1.051.041zM92.285 165.31c-.243.025-.476.065-.687.11.257.005.505-.005.715-.051l-.028-.059zM67.863 165.43c-.26-.021-.77-.065-1.284-.004.338.064 1.022.086 1.284.004z"/><polygon points="66.49,165.593 67.082,165.678 67.168,165.615"/><path d="M32.046 166.063l-1.894.33c-.331-.167-2.47.035-1.777-.253-1.125.392-3.575.011-2.667.576 5.547-.194 13.203.138 19.617-.366l-1.033.226c3.339-.448 4.575.493 7.257-.396l-.357.458c1.526.128 2.924-.66 4.522-.178l-.163-.187 1.022.086-.171-.084c1.116-.184 1.796-.162 2.898-.035.08.146-.514.062-.856.102.506.148 1.372-.162 2.226-.159.674.127-.01.208-.101.271 2.566-.202 3.735.28 5.555-.402.177-.125-.667-.232.268-.291-1.692-.215-3.069.054-4.611.238l.429.001c-1.223.662-.931-.15-2.903.136.521-.269 1.376-.267 1.721-.411-2.279-.506-3.254.387-4.759-.265l.169-.019c-.338-.062-.939.061-1.452.121.168.084.672.127 1.013.19-.516.061-.781.353-.958.477-.583-.293-.771.144-1.704-.004-.329-.271.778-.248 1.124-.394l-1.118.186c-1.019.018-1.006-.296-1.512-.442-.86.207.506.146-.191.437-1.094-.336-5.782-.242-8.011.021.772-.038.27-.29 1.207-.246-.34-.062-1.533.08-1.544.288-1.544.184-3.499.054-4.939-.138l.416.21c-1.208.35-3.057-.261-5.193-.055l.046.004c-.688.045-1.279.552-2.541.447.355-.25 1.035-.23.965-.48zM24.523 166.547l.695-.291c-.767-.064-1.718.308-1.556.496.511-.062 1.191.066 1.284-.101-.089-.042-.081-.145-.423-.104zM10.208 166.593c-.281.066-.209.176-.328.257 3.033-.036 6.772-.151 7.979.075 1.023.085 1.207-.351 2.491-.452l.581.293c.693-.186 2.811.134 2.063-.348-.083-.042-.606.227-1.201.142l.096-.166-1.367.058.434-.208c-1.862-.296-1.306.624-3.596.431l.018-.418c-1.536-.024-2.308.12-3.659-.133 0 0-.009.208.246.124.259.022.591.189.414.314l-1.258-.42c-1.972.286-5.729.526-6.823.19.926.252-.454.52-1.555.496-.505-.147.351-.248.527-.373-.511-.045-.93-.149-1.447-.088.67.229.233.543-.968.685 2.632.258 4.713-.508 7.353-.459zM9.422 166.945c.273-.015.393-.051.458-.096l-1.052.01.594.086z"/></g><g fill="#678EA9"><polygon points="4.292,2.295 5.156,2.385 5.431,2.129"/><path d="M8.397 3.215l1.489-.107c-.855-.741.294-.526-2.029-1.055-.814.115-2.606.372-2.37.662.584-.031 1.443-.314 2.313-.223-.373.213-1.306.189-1.741.466 1.401.229.88-.18 2.423-.078l-.085.335zM10.154 2.479c-.136.127-.278.254-.252.358.14-.128.861-.285.252-.358zM11.06 2.401c.94.028-.016.273.082.313l1.063-.477-1.145.164zM14.959 2.434l.436-.045c-.151-.077-.274-.012-.436.045zM16.875 2.377c-.383-.165-.868-.067-1.479.012l.06.03c.536.139.031.479-.836.39-.905.076-.823-.26-1.609-.039l1.077.275c1.424-.042 2.231-.533 2.787-.668zM14.959 2.434l-.511.021c.228.057.379.024.511-.021z"/><polygon points="13,2.394 12.514,2.464 12.631,2.608"/><path d="M20.074 2.35c-.225.462-2.287-.05-2.537.31 1.259-.02 2.271.319 1.994.574l1.395-.144c.469-.174-.123-.522-.852-.74zM22.808 3.521c.09-.039.197-.065.317-.079-.151.019-.281.042-.317.079zM29.868 2.726l-3.263.466c.303-.149.183-.294.925-.347-1.444-.062-1.631.233-2.819.187-.36-.432 2.099-.032 1.413-.418-.838.013-2.098.032-2.771.397l-1.333-.295.451.475c.543.136 1.092-.372 1.425-.042.169.203-.373.242-.756.29.861-.096 2.355.37 4.105.308 1.843-.049 1.408-.794 2.623-1.021z"/><polygon points="29.991,3.247 30.208,3.432 30.059,3.182"/><path d="M33.55 2.629l-1.698.297c-.183-.041-.284-.14-.407-.227.066.11-.39.295-.317.385.784.428 2.078-.137 2.99-.212 2.407.193-.111.229.827.634-.675-.011-.701-.113-1.635-.143 1.474.482 3.326.04 4.272-.08-.276-.043-.347-.175-.868-.137l.981-.141c-1.015-.339-1.883-.431-4.145-.376zM30.516 2.633c.632-.032.866 0 .923.061-.166-.116-.38-.2-.923-.061zM38.091 3.271c-.105-.027-.279-.018-.509.012.113.018.267.023.509-.012zM37.127 2.764l1.189.045-.468-.203c-.165.023-.749.054-.721.158zM82.631 3.418c-.107-.174-.542-.26-1.461-.226.109-.232 1.3-.187 1.858-.32-1.216-.149.019-.272-.29-.497-1.354-.022-1.957.279-3.404.218.069-.065.042-.168-.146-.249-1.743.146-4.698.363-6.4.164-1.643-.087-2.86.022-4.664.127-5.927-.121-12.111.118-18.487-.1l-.902.452c-.309-.226-1.52.001-1.339-.292.349.056.68.009 1.1.003-1.366-.397-3.619.033-5.257-.109.187.081.455.474-.038.543.132-.503-1.934.009-2.411-.568-1.641-.144-.066.439-1.769.359-.181.296 1.636.144 1.944.367-.535.24-1.544-.102-1.469.21 2.735.147 7.813-.47 11.989-.638l-.438.278c2.143-.199 5.601-.209 7.313.244-.404-.264 3.154.143 2.837-.459.54.138.704.116 1.473.167l.207-.191c1.1.005.92.298 2.179.279-.82-.258.088-.335.455-.55 1.443.289 3.12.542 4.401.779-.101-.084-.215-.179-.655-.29.869.091.721-.156.955-.245.839-.013.751.322.71.49 1.54.103 2.228-.535 3.379-.321l-.401-.266c1.584-.064 2.922.229 4.67.139.849.365-1.439.315-2.165.473.356.076 1.111.097 1.354.217.745-.187 2.003-.439 2.935-.615-.89.423 1.341.4 1.937.427zM77.759 3.605c-.221.057-.401.105-.508.146.169-.022.328-.047.583-.03.026-.047-.012-.084-.075-.116zM82.631 3.418l.036.043c.175-.024.125-.035-.036-.043zM72.563 2.484l.226.023.289.01-.515-.033zM71.253 3.695c-.341-.094-.812-.189-1.341-.285.149.12.272.214 1.341.285zM60.554 3.396c-.328.047-.139.127-.366.214.676.01.906-.077.366-.214z"/><polygon points="79.679,3.674 81.011,3.592 81.498,3.521"/><path d="M106.668 2.289c-1.175-.317-2.901-.123-4.348-.188-2.658.166-.336.695-2.858.733l.434-.654c-2.521.039-6.094-.097-8.235.478-.186-.08-.632-.178.022-.271-1.682.025-.871.932-3.114.715 2.092-.406-.686-.387-.112-.792l.326-.046c-1.423.042-3.306.258-4.247.23-.04.169.782.426-.479.446.511.033.306.224.265.392 1.301-.186 2.006-.071 2.798-.293l.24.289 1.043-.203c.771.051-.792.22.405.266.136-.127 1.111-.268 2.048-.238l-.27.076c.715-.088 1.732.02 1.384-.344l.849.362-.149-.248c1.966.098 2.701.69 5.238.381-.604-.074-.047-.208.277-.255-1.057-.172-1.306.187-2.306.22-.148-.248 1.552-.544.334-.692 1.338.294 2.521-.038 3.093.581 1.612.039 2.215-.263 3.851-.121l-.044.093c.303-.409 1.328.185 2.538-.234l-.861-.092c.041-.167.462-.173 1.044-.203-.068.065-.068.065.121.146.182-.296 2.024-.344 2.254-.431-.771-.051-1.723.193-2.631.269.459-.174.319-.423 1.09-.372zM90.067 3.371l.519-.143c-.212.024-.405.067-.519.143zM113.961 2.808l.683.386c1.046-.205-1.196-.422-.178-.729.634.179 1.656-.13 2.079-.136-.467.175-.2.567-.011.648.396-.11 1.284.085 1.961.096-1.661-.246 1.398-.146-.101-.414.112-.233 1.672-.404 2.31-.225-.047.168-.562.133-.981.14-.344.319 1.054.171 1.293.462 1.583-.442 6.648-.412 5.208-1.123-.541-.136-1.001.035-1.587.066 1.642.143.011.375-.129.503-.702-.114-1.909.111-1.636-.144l1.117-.267c-3.575-.134-8.456-.083-12.563.021l1.778.014c-.207.192-1.046.205-1.699.298l.873.468c-.513-.034-1.003.035-.962-.133-.623.198-.341.318.033.48-1.325.082-1.543-.101-2.563.206 2.202.384 1.86-.319 4.389.018l.686-.635z"/><polygon points="109.131,3.065 109.664,2.828 108.853,2.945"/><path d="M109.978 2.031l-.276.252c1.028.07.909-.074.276-.252zM122.373 3.056l1.325-.082-.863-.091c.024.104-.301.148-.462.173zM131.686 1.832c-1.843.048-2.633.268-4.715.029-1.02.307.479.575.039.854 1.032.068.904-.451 1.974-.552.399.265 1.568-.058 2.59.003-.127-.109-.127-.233.112-.334zM138.029 2.845c.839.003 1.689-.203 2.357-.075-.093.167-.596.228-1.104.183.322.377.931-.059 1.843.193-.079-.041-.414-.105-.158-.188 2.269.089 1.274-.31 4.213-.094.428-.104.846-.102.775-.352 1.669.316.827.314 2.833.592-.077-.146-.733-.482-.721-.795 2.838.44 2.898-.062 4.708.268-.202.016-.447.098-.933.055.233.438 1.518-.08 2.521.007l-.095.374c.928-.059 2.537-.305 3.704-.031l-.265.188c2.373-.285 5.144-.153 7.171-.294l1.085.232c2.79-.285-2.772-.131-.729-.69.305.69 1.438-.225 3.026.05.747.274-1.604.144-.776.456.354-.353.846-.102 1.694-.203-.184.333 1.764.045 1.246.421l2.972-.618c.477.189 1.338.157 1.973.109-1.604-.004.441-.496-1.36-.65-2.615.16-6.999.273-10.276.098-.356.459-2.104-.005-2.625.369l-.402-.418c-2.109.098.494.251-.018.418-.928.06-1.672-.215-1.585-.381-1.513-.024-.172.125-.943.372l-.986-.503c-4.72.155-10.966.494-16.339.207l.402.314c-2.429-.173-4.07.699-6.225.025l-.74.27c.406-.153-.418-.472.219-.686-.663.107-1.366-.013-2.051.085l1.216.15c-.854.267-1.793.102-2.078-.131-1.814.315 1.079.543 1.483.808 2.556-.581 2.575.569 5.029.326 1.523-.184-.156-.293-.061-.461zM134.864 1.984c-.161.024-.281.055-.373.084.13-.019.25-.046.373-.084zM175.37 2.633c.189 0 .416-.004.716-.019.243-.079-.146-.023-.716.019zM131.573 2.166l.006.006.019-.006h-.025z"/><polygon points="130.355,2.938 131.031,2.947 130.914,2.804"/><path d="M182.55 3.027l.008-.165c-.066.052-.092.105-.008.165zM201.991 3.128l-.418-.008c.129.025.278.021.418.008zM248.645 2.785c1.267-.102 2.956-.201 3.891-.469l-.092.166c.682-.081 2.878-.346 1.461-.642l-.344.145c-1.609.245-1.168-.274-2.427-.381-1.518.077-2.385.701-3.725.554-.591.018-.498-.149-.326-.273-1.344-.046-1.871.433-2.799.495-.366-1.253-4.138.341-6.127-.456-1.264.102-2.944-.008-4.555.239.855-.313-1.516-.026-1.163-.38-.452.729-4.615-.324-4.906.592-2.177-.257-.091.062-2.605-.154.003-.103.429-.103.595-.122-1-.189-1.532.391-2.357-.028-2.015-.067-.344.249-1.531.495-2.102-.107-1.512-.232-2.67-.61-.186.438-1.441.226-2.462.452.254.021 1.68.107.746.273-2.439-.07-1.95.288-4.228.405-1.155-.482 2.274-.015.271-.395 1.442-.225 2.537-.203 3.311-.555-1.94-.026-4.299.051-6.415.254-1.174-.065.603-.228-.321-.271-2.096-.214-3.222.491-4.897.278l.351-.249c-1.025.331-3.704-.073-5.645.11.244.125.41.209.151.292.031-.626-2.705.325-4.622-.116.151.396-1.71.62-2.891.661-.416-.108-.326-.274-.321-.38 1.928.236 1.871-.431 3.396-.615-1.273.206-3.371-.008-4.476.281l.433-.312c-1.765-.045-1.543.705-3.386.407l.182-.229c-3.706.031-8.064-.376-11.035.137-.261.188 1.236.629 1.315.776 1.773-.163 2.799-.495 4.149-.658l-.013.357c.308-.245 1.934-.391 1.034-.583 1.102-.183.83.314 2.099.11-.098.374-.858.414-.871.726l1.102-.184.328.272c2.038-.453 2.852.176 4.966-.028l-1.177-.066c.01-.208.685-.187 1.189-.247.577.293.917.253 2.004.381.934-.164 1.454-.538 2.716-.535-.271.396 2.099.215 2.335.548.269-.395 2.448-.141 2.624-.367.677-.081 1.604-.039 1.595.172l-.51.068.675.013-.118.087c.602.01.606-.277 1.379-.082-.006.104-.423.102-.764.144 1.6.067 2.809-.597 4.135-.239.261-.186 2.114-.202 1.712-.622.499.149.315.481 1.666.422.771-.353 1.508.13 2.527-.098-1.363.371-.003.104-1.199.457.922.146 2.288-.328 3.889-.264l.323.273c.597-.124 1.278-.413 1.855-.12l-.072-.251c1.092.129 2.607.049 3.776.323l1.363-.476c1.833.504 4.291.051 5.742-.381.672.021 1.68.108 1.674.214l-.73.173c.989.018 2.196.289 2.748-.106 1.017-.122.745.273 1.5.337 2.05-.557 6.046.412 6.672-.439-.843-.004-2.436-.174-4.035-.138.424-.103.096-.27.685-.288 1.605-.038 2.43.276 4.035.135l-.192.541c2.753.554 5.252-.732 7.407.044zM228.108 2.772l1.162.274-.125-.233c-.359.039-.725.039-1.037-.041zM229.146 2.813c.24-.025.471-.065.679-.11-.254-.005-.498.005-.707.051l.028.059zM253.273 2.693c.257.021.76.065 1.269.004-.335-.064-1.01-.086-1.269-.004z"/><polygon points="254.63,2.53 254.045,2.445 253.96,2.508"/><path d="M288.658 2.059l1.871-.33c.326.167 2.44-.035 1.756.253 1.112-.392 3.532-.011 2.635-.576-5.48.195-13.044-.138-19.381.366l1.021-.226c-3.299.448-4.52-.493-7.17.396l.354-.458c-1.508-.128-2.889.66-4.468.178l.161.187-1.01-.086.169.084c-1.103.184-1.775.162-2.863.035-.079-.146.508-.062.846-.102-.5-.148-1.355.162-2.199.159-.666-.127.009-.208.1-.271-2.535.202-3.69-.28-5.489.402-.175.125.66.232-.265.291 1.672.215 3.032-.054 4.556-.238l-.423-.002c1.209-.662.92.15 2.868-.136-.514.269-1.359.267-1.7.412 2.251.506 3.215-.387 4.701.265l-.167.019c.334.062.928-.061 1.434-.121-.166-.084-.664-.127-1-.191.51-.061.771-.352.946-.476.576.293.762-.144 1.684.004.325.271-.769.248-1.11.394l1.104-.186c1.007-.018.994.296 1.494.442.851-.207-.5-.146.189-.437 1.081.336 5.712.242 7.915-.021-.764.038-.267.29-1.193.246.336.062 1.515-.08 1.525-.288 1.526-.184 3.457-.054 4.88.138l-.41-.21c1.192-.35 3.02.26 5.13.055l-.045-.004c.68-.045 1.263-.552 2.51-.447-.353.251-1.025.23-.956.48zM296.09 1.576l-.686.291c.757.064 1.697-.308 1.536-.496-.505.062-1.177-.066-1.269.101.09.042.082.145.419.104zM310.233 1.53c.277-.066.206-.176.323-.257-2.996.036-6.69.151-7.884-.075-1.011-.085-1.192.351-2.461.452l-.574-.293c-.685.186-2.776-.134-2.038.348.082.042.6-.227 1.187-.142l-.095.166 1.351-.058-.43.208c1.84.296 1.291-.624 3.553-.431l-.017.418c1.518.024 2.279-.12 3.614.133 0 0 .009-.208-.243-.124-.256-.022-.584-.189-.409-.314l1.243.42c1.948-.286 5.661-.526 6.741-.19-.915-.252.448-.52 1.537-.496.498.147-.348.248-.521.373.505.045.919.15 1.43.088-.662-.23-.23-.543.956-.685-2.6-.258-4.655.508-7.263.459zM311.009 1.178c-.27.014-.388.051-.452.096l1.039-.01-.587-.086z"/></g></svg>